<svg width="88" height="88" viewBox="0 0 88 88" fill="none" xmlns="http://www.w3.org/2000/svg">
    <path d="M36.1496 16.9685C33.986 17.189 32.5114 18.195 30.9266 20.5102C30.1687 21.6127 30.0584 22.1088 30.4719 22.5636C30.8026 22.9357 39.5811 29.082 40.0358 29.2611C40.6009 29.4678 41.0143 29.206 41.8136 28.076C42.792 26.6979 43.2881 25.5954 43.4397 24.4378C43.5775 23.4593 43.4673 22.1915 43.1779 21.406C43.0952 21.213 43.0401 20.9926 43.0401 20.9236C43.0401 20.8272 44.4733 20.7996 47.0779 20.8272C50.5783 20.8685 51.1571 20.8961 51.5292 21.1028C52.1355 21.4335 52.7419 22.0675 53.0451 22.6876C53.2931 23.1837 53.3069 23.7763 53.3482 37.1576L53.3896 51.1177H46.8299H40.2839V48.0859C40.2839 45.4951 40.3115 44.999 40.5044 44.6958C40.9867 43.9654 41.1245 43.9516 46.3889 43.9516C51.4189 43.9516 52.0115 43.8965 52.2733 43.4004C52.5076 42.9594 52.4249 42.3668 52.0942 42.0499C51.8599 41.8294 51.5843 41.7467 50.8952 41.7191L49.9995 41.6778L49.9306 38.9078L49.8617 36.1378L49.4482 35.4626C49.1864 35.0491 48.773 34.6357 48.3595 34.3739C47.7532 34.0018 47.5602 33.9604 46.6231 33.9604C45.686 33.9604 45.4931 34.0018 44.8867 34.3739C43.8945 34.994 43.3984 35.8622 43.3433 37.1438C43.2881 38.0672 43.3157 38.1774 43.6327 38.4944C44.0737 38.9354 44.5698 38.9491 45.0383 38.5357C45.3139 38.3014 45.4242 38.0396 45.5069 37.4332C45.6447 36.4548 45.8927 36.1654 46.6369 36.1654C47.0641 36.1654 47.2708 36.2481 47.4638 36.4961C47.6981 36.7855 47.7256 37.0611 47.7256 39.2799V41.7467H44.3906C41.3313 41.7467 40.9867 41.7742 40.4217 42.0361C39.4295 42.4771 38.9609 42.9318 38.5062 43.8276L38.0789 44.682V47.9068V51.1177H34.303H30.527L22.0379 42.1188C16.9252 36.7028 13.3284 33.0095 12.9838 32.8028C10.7927 31.535 8.17428 33.9467 9.24919 36.2619C9.49725 36.7855 28.2531 56.5336 28.6528 56.6852C28.7768 56.7266 35.4881 56.7679 43.5638 56.7679H58.268L59.5497 57.4707C60.2663 57.8566 60.8175 58.1874 60.79 58.2149C60.6797 58.3389 39.1539 62.9969 39.0023 62.928C38.9058 62.9004 38.0652 61.7704 37.1281 60.4199C36.0531 58.8902 35.2952 57.9393 35.0885 57.8566C34.6613 57.705 34.1789 57.8153 33.8758 58.146C33.297 58.7937 33.3521 58.8764 40.4631 69.0743C44.1563 74.3524 47.1744 78.7072 47.1744 78.7485C47.1744 78.7899 44.2942 78.8174 40.7662 78.8174C34.5372 78.8174 34.3443 78.8312 34.0825 79.0931C33.7242 79.4514 33.7104 80.2369 34.0687 80.5952C34.2203 80.7468 34.551 80.9121 34.7991 80.9535C35.0471 80.9948 43.1779 81.0086 52.8521 80.9948L70.4366 80.9535L70.7949 80.6227C71.0017 80.4298 71.1532 80.1404 71.1532 79.9337C71.1532 79.286 68.7002 72.5609 68.3833 72.3404C68.2179 72.2301 64.7451 70.1354 60.6522 67.6824C52.6316 62.8867 52.5903 62.8729 52.0115 63.6033C51.6532 64.058 51.6394 64.499 51.9701 64.9125C52.1217 65.0778 55.5119 67.1863 59.5221 69.5704L66.8122 73.9252L67.5978 76.1302C68.025 77.3429 68.3833 78.4454 68.3833 78.5694C68.3971 78.8037 67.8734 78.8174 59.1776 78.8174H49.9581L45.2175 72.0372C42.6129 68.3026 40.4768 65.1881 40.4493 65.1054C40.4355 65.0227 41.9652 64.6368 44.1012 64.1683C47.9737 63.3276 52.3147 62.3768 59.5635 60.792L63.8907 59.8411L69.8992 63.1485C74.6812 65.7807 76.0317 66.4697 76.5416 66.5248C79.4218 66.8142 80.7034 63.1072 78.2642 61.5361C77.8783 61.2743 74.9017 59.6344 71.6356 57.8704C68.3833 56.1064 64.2903 53.8739 62.5401 52.923L59.3705 51.1866L57.4825 51.1453L55.5808 51.0902V37.6399C55.5808 29.5781 55.5256 23.8039 55.4429 23.2388C55.126 21.0615 53.6101 19.3526 51.5016 18.8014C50.8677 18.636 49.7514 18.5947 46.0443 18.5947H41.3864L40.7662 18.1261C39.5673 17.2028 37.8722 16.7756 36.1496 16.9685ZM38.7956 19.5318C40.904 20.5653 41.8825 23.1975 40.9178 25.2784C40.7249 25.7056 40.4493 26.2018 40.3115 26.3809L40.0634 26.6979L38.0652 25.306C36.9765 24.5343 35.3503 23.3904 34.4546 22.7565L32.8284 21.6127L33.2694 21.0063C33.7517 20.3311 34.6475 19.642 35.4192 19.3526C36.2323 19.0494 37.9963 19.1459 38.7956 19.5318ZM20.7149 43.9378C25.4969 49.0092 29.521 53.1986 29.6312 53.24C29.7415 53.2813 36.3288 53.3227 44.2528 53.3227L58.6815 53.3365L67.9836 58.3941C76.2246 62.8867 77.2858 63.493 77.2858 63.7824C77.2858 64.3612 76.8861 64.4577 76.1419 64.058C75.384 63.6308 70.161 60.7644 63.5048 57.1262L58.8331 54.563L44.1426 54.5492L29.4659 54.5354L20.3842 44.999C15.3817 39.7484 11.2612 35.3799 11.2336 35.2972C11.1372 34.9802 11.3301 34.7184 11.6609 34.7184C11.9227 34.7184 13.8934 36.7304 20.7149 43.9378Z" fill="#1FBBB3"/>
    <path d="M25.8002 79.0793C25.3729 79.4238 25.3592 80.2231 25.7864 80.6503C26.0896 80.9397 26.1722 80.9535 29.1076 80.9535C32.1118 80.9535 32.1394 80.9535 32.4839 80.6227C32.9525 80.1818 32.9663 79.5341 32.5253 79.1206C32.2221 78.8312 32.0981 78.8174 29.1627 78.8174C26.3927 78.8174 26.0896 78.845 25.8002 79.0793Z" fill="#1FBBB3"/>
</svg>
