<svg width="100" height="88" viewBox="0 0 100 88" fill="none" xmlns="http://www.w3.org/2000/svg">
    <path d="M62.1975 13.3851C61.8336 13.7437 61.8066 13.85 61.8066 14.7929C61.8066 15.7492 61.8336 15.8289 62.2109 16.214C62.5613 16.5461 62.6961 16.5992 63.06 16.5328C63.7877 16.4 63.9629 16.0547 63.9629 14.7664C63.9629 13.757 63.9359 13.6242 63.626 13.332C63.1813 12.8937 62.6826 12.907 62.1975 13.3851Z" fill="#1FBBB3"/>
    <path d="M47.7236 16.2539C47.4271 16.5328 47.3867 16.6922 47.3867 17.6219C47.3867 18.95 47.6563 19.375 48.4648 19.375C49.2734 19.375 49.543 18.95 49.543 17.6484C49.543 16.8117 49.4891 16.5594 49.26 16.2672C48.8826 15.8023 48.1818 15.7891 47.7236 16.2539Z" fill="#1FBBB3"/>
    <path d="M58.2354 17.343C57.602 17.5023 57.292 18.0734 57.5077 18.7109C57.7098 19.2687 57.9793 19.375 59.2866 19.375C60.2838 19.375 60.4455 19.3352 60.7016 19.0695C61.2407 18.5117 61.025 17.675 60.2704 17.3828C59.893 17.25 58.734 17.2234 58.2354 17.343Z" fill="#1FBBB3"/>
    <path d="M65.4992 17.3695C65.1219 17.5289 64.7715 18.0203 64.7715 18.3922C64.7715 18.5516 64.8928 18.8305 65.0545 19.0297C65.3105 19.3484 65.4049 19.375 66.4695 19.375C67.7902 19.375 68.0598 19.2687 68.2619 18.7109C68.4102 18.2594 68.3023 17.8078 67.952 17.5289C67.6824 17.3031 65.9035 17.1969 65.4992 17.3695Z" fill="#1FBBB3"/>
    <path d="M43.519 20.3312C43.1551 20.5039 42.8856 21.1148 43.0069 21.5C43.209 22.1242 43.5864 22.2969 44.7858 22.2969C45.81 22.2969 45.9448 22.2703 46.2412 21.9648C46.4569 21.7656 46.5782 21.4867 46.5782 21.2344C46.5782 20.982 46.4569 20.7031 46.2412 20.5039C45.9448 20.2117 45.81 20.1719 44.8666 20.1852C44.2871 20.1852 43.6807 20.2516 43.519 20.3312Z" fill="#1FBBB3"/>
    <path d="M50.6885 20.5039C50.4729 20.7031 50.3516 20.982 50.3516 21.2344C50.3516 21.4867 50.4729 21.7656 50.6885 21.9648C50.9715 22.257 51.1332 22.2969 52.0766 22.2969C53.4242 22.2969 53.8555 22.0312 53.8555 21.2344C53.8555 20.4375 53.4242 20.1719 52.0766 20.1719C51.1332 20.1719 50.9715 20.2117 50.6885 20.5039Z" fill="#1FBBB3"/>
    <path d="M62.1975 20.5569C61.901 20.796 61.874 20.9155 61.874 22.0311C61.874 23.1468 61.901 23.2663 62.1975 23.5054C62.6287 23.8507 63.3025 23.8374 63.6664 23.4522C63.9225 23.1866 63.9629 22.9874 63.9629 22.0179C63.9629 21.0085 63.9359 20.8491 63.6529 20.5968C63.2621 20.2382 62.6152 20.2249 62.1975 20.5569Z" fill="#1FBBB3"/>
    <path d="M70.9707 23.2265C70.7416 23.4523 70.7012 23.6648 70.7012 24.6875C70.7012 25.7367 70.7416 25.9094 70.9977 26.1484C71.5637 26.6531 72.4531 26.4406 72.7092 25.7367C73.0326 24.8203 72.817 23.3594 72.3184 23.0937C71.9006 22.8812 71.2537 22.9476 70.9707 23.2265Z" fill="#1FBBB3"/>
    <path d="M47.9796 23.253C47.8179 23.3194 47.6157 23.5319 47.5349 23.7046C47.3462 24.1429 47.3462 25.6835 47.5484 26.0554C47.9122 26.746 48.6669 26.8788 49.206 26.3476C49.5025 26.0687 49.5429 25.9093 49.5429 24.9663C49.5429 23.7046 49.489 23.5452 48.9904 23.2929C48.5591 23.0671 48.3704 23.0538 47.9796 23.253Z" fill="#1FBBB3"/>
    <path d="M66.6042 27.4898C66.1325 27.8617 66.1191 28.5523 66.5907 29.0039C66.8738 29.2961 67.0355 29.3359 67.9788 29.3359C69.3265 29.3359 69.7577 29.0703 69.7577 28.2734C69.7577 27.4766 69.3265 27.2109 68.0058 27.2109C67.1568 27.2109 66.9007 27.2641 66.6042 27.4898Z" fill="#1FBBB3"/>
    <path d="M74.1107 27.3703C73.6795 27.5828 73.4638 28.1805 73.6525 28.6586C73.8681 29.1633 74.3129 29.3359 75.4179 29.3359C76.55 29.3359 76.7252 29.2695 76.9812 28.7781C77.2373 28.2867 77.116 27.6891 76.7252 27.4102C76.3883 27.1711 74.5824 27.1445 74.1107 27.3703Z" fill="#1FBBB3"/>
    <path d="M24.4226 28.9507C21.2152 29.4156 18.2504 30.996 16.4715 33.1875C14.733 35.3523 13.9379 37.8625 13.9379 41.2226C13.9379 44.0914 14.5443 46.4554 15.9189 48.9257C18.722 53.946 19.8945 57.1734 20.4336 61.3437C20.5144 61.9679 20.6088 63.9601 20.6492 65.7929C20.7435 70.5343 21.1209 73.1375 22.0508 75.5414C23.358 78.8882 25.8107 80.7742 29.072 80.9601C33.3037 81.2125 35.7834 78.7687 36.8615 73.2968C37.2388 71.371 37.3736 70.282 37.6836 66.5101C37.9531 63.1765 38.0744 62.5523 38.7078 61.3171C39.0851 60.6 39.6377 60.2414 40.3924 60.2546C41.1066 60.2679 41.5513 60.6 41.9961 61.4632C42.5756 62.6187 42.6564 63.0437 42.9394 66.457C43.5998 74.4257 44.4623 77.4007 46.6994 79.446C49.0578 81.6109 53.4646 81.4914 56.1195 79.1937C57.0224 78.4234 58.0332 76.9093 58.5588 75.5546C59.5291 73.0976 59.9064 70.5609 60.0008 65.9257C60.0681 62.2468 60.1894 60.932 60.6746 58.6875C61.3215 55.6992 62.5074 52.764 64.3267 49.6562C65.7687 47.1859 66.4965 44.9015 66.7256 42.1523C66.8334 40.8507 66.6177 38.6195 66.2404 37.225C64.9736 32.4304 60.6342 29.2031 55.0009 28.8578C52.6291 28.6984 49.9472 29.1632 45.9717 30.3984C41.3761 31.8195 39.2334 31.8328 34.9209 30.4648C32.832 29.8007 29.8672 29.0968 28.5195 28.9375C27.1988 28.7781 25.5547 28.7914 24.4226 28.9507ZM30.2176 31.3945C31.0935 31.5937 32.7781 32.0453 33.9506 32.4039C39.3951 34.0507 41.1605 34.0375 46.915 32.3375C50.0416 31.4078 51.6588 31.0757 53.4377 30.9695C57.3863 30.757 61.0115 32.3242 62.9117 35.0867C64.0976 36.8132 64.5558 38.5265 64.5424 41.2226C64.5424 44.0914 63.9763 46.0039 62.2783 48.939C60.4994 52.007 59.4752 54.5437 58.707 57.6914C58.141 60.0156 57.9254 62.0476 57.831 65.8593C57.7906 67.7187 57.6828 69.8703 57.575 70.6406C57.009 74.8109 55.6748 77.3078 53.4646 78.3835C52.6426 78.782 52.4808 78.8085 51.2275 78.8085C50.109 78.8085 49.772 78.7554 49.206 78.5031C47.5484 77.746 46.5377 76.0195 45.9177 72.8718C45.5404 71.0125 45.4191 69.9101 45.0957 66.1781C44.8127 62.7515 44.6105 61.782 43.8558 60.3875C43.0203 58.8335 41.8748 58.0898 40.3115 58.1031C38.573 58.1164 37.2927 59.0859 36.4707 61.0382C35.9316 62.3132 35.7295 63.482 35.4599 66.9218C35.2039 70.2289 34.9613 71.982 34.5031 73.8281C33.8697 76.3382 33.0072 77.7062 31.5517 78.45C30.9588 78.7554 30.7162 78.7953 29.5302 78.7953C28.4386 78.7953 28.0343 78.7421 27.4144 78.5031C25.3256 77.6796 23.8162 75.2226 23.2097 71.6234C22.9267 69.95 22.8594 68.9937 22.792 65.5273C22.7111 61.8617 22.4685 59.8164 21.7812 57.1468C21.0131 54.1718 19.8945 51.5023 18.2908 48.8328C16.5119 45.8578 15.7842 42.8429 16.1211 39.8546C16.3636 37.65 16.7275 36.5875 17.6978 35.1531C20.0562 31.6203 24.8 30.1992 30.2176 31.3945Z" fill="#1FBBB3"/>
    <path d="M71.0516 30.4117C70.7146 30.6641 70.7012 30.7437 70.7012 31.9258C70.7012 33.1078 70.7146 33.1875 71.0516 33.4398C71.5232 33.8117 71.9545 33.7851 72.4127 33.4C72.7766 33.0945 72.79 33.0281 72.79 31.9258C72.79 30.8234 72.7766 30.757 72.4127 30.4516C71.9545 30.0664 71.5232 30.0398 71.0516 30.4117Z" fill="#1FBBB3"/>
</svg>
