<svg width="88" height="88" viewBox="0 0 88 88" fill="none" xmlns="http://www.w3.org/2000/svg">
    <g clip-path="url(#clip0_1527_599)">
        <path d="M58.6708 16.584C54.8115 18.4756 50.7744 18.8818 46.4072 17.8281C45.3154 17.5742 44.7949 17.625 44.5029 18.0312C44.0078 18.7041 44.0585 25.7119 44.5917 29.8379C45.2392 34.8906 46.5087 38.4834 48.6162 41.2383C49.6318 42.584 53.2753 45.6943 55.7763 47.3701C57.4775 48.5127 59.6103 49.6426 60.0673 49.6426C60.5497 49.6426 62.4413 48.665 64.1933 47.5098C67.6083 45.25 71.3662 41.8096 72.4833 39.918C74.9462 35.7666 76.1396 29.4189 75.9745 21.3574C75.9238 18.6406 75.8984 18.374 75.6572 18.0566C75.4413 17.7646 75.3144 17.7139 74.7812 17.7266C74.4384 17.7266 73.5878 17.8535 72.8896 18.0186C71.0488 18.4248 68.1923 18.5264 66.5292 18.2217C64.955 17.9424 63.1015 17.3457 61.4765 16.584C60.791 16.2666 60.1308 16 60.0165 16.0127C59.9023 16.0127 59.3056 16.2793 58.6708 16.584ZM62.7587 19.3135C66.415 20.5703 69.7158 20.7734 73.5751 19.9863L74.0068 19.8975L73.9306 23.4395C73.8925 25.3818 73.7656 27.7559 73.664 28.6953C73.2324 32.5293 72.3818 35.7539 71.1503 38.1279C70.541 39.3213 70.3378 39.5752 68.6367 41.2764C66.3007 43.6123 63.5331 45.6943 60.791 47.1797L60.1054 47.5352L59.2675 47.1035C58.1249 46.5068 55.3447 44.6406 54.0371 43.5869C52.3613 42.2412 50.2792 40.1719 49.6445 39.2197C47.4355 35.8936 46.2675 30.3965 46.2421 23.1475C46.2294 21.4717 46.2675 20.0498 46.3056 19.999C46.3564 19.9609 46.8642 20.0244 47.4482 20.1514C48.9843 20.4814 53.0214 20.4814 54.5449 20.1387C55.954 19.834 58.0615 19.1357 59.1787 18.6152L60.0673 18.1963L60.8925 18.5771C61.3496 18.7803 62.1874 19.1103 62.7587 19.3135Z" fill="#1FBBB3"/>
        <path d="M69.2842 25.6103C69.1827 25.6484 66.9483 27.4512 64.3331 29.5967C61.7051 31.7549 59.5088 33.5068 59.4454 33.4814C59.3692 33.456 58.4297 32.1865 57.3379 30.6504C55.2178 27.667 54.9512 27.4131 54.2784 27.6797C54.0752 27.7685 53.8467 27.9463 53.7832 28.0732C53.4659 28.6445 53.6309 28.9492 56.1192 32.4404C57.4776 34.3447 58.6836 35.9316 58.7979 35.9824C59.4581 36.2236 59.6231 36.1094 65.0186 31.6787C67.9512 29.2666 70.4268 27.1465 70.5157 26.9814C70.9092 26.2324 70.0713 25.3057 69.2842 25.6103Z" fill="#1FBBB3"/>
        <path d="M21.0674 28.6318C19.3027 28.9492 17.2588 29.749 15.9512 30.6377C15.1006 31.2217 13.8437 32.4658 13.209 33.3418C10.2383 37.4932 10.3398 44.209 13.4629 49.4394C15.4307 52.7656 16.7129 56.168 17.3476 59.7988C17.5635 61.0557 17.6523 62.1982 17.7285 65.3213C17.792 67.4795 17.8935 69.7646 17.9824 70.3994C18.6807 76.1885 20.6357 79.4258 24.1904 80.6445C25.3965 81.0635 27.707 81.0635 28.9258 80.6445C31.4902 79.7559 33.0771 77.293 33.8516 72.9766C34.1943 71.0342 34.3213 69.9678 34.6133 66.3115C34.8799 62.9219 35.0322 62.1982 35.7939 60.9033C36.0605 60.459 36.2637 60.2812 36.708 60.1035C37.2539 59.9004 37.3047 59.9004 37.8633 60.1162C38.5361 60.3701 38.9424 60.9287 39.4121 62.2617C39.6533 62.9727 39.7549 63.7217 39.958 66.2607C40.2627 70.1201 40.4912 72.0117 40.9101 73.8779C41.4814 76.4297 42.1543 77.8643 43.3476 79.1211C44.5283 80.3652 45.6709 80.8604 47.626 80.9619C51.0918 81.1396 53.8086 79.3115 55.2939 75.8076C56.3349 73.3447 56.8301 69.9551 56.8301 65.2324C56.8301 62.6172 56.9697 61.1445 57.414 58.9102C57.7568 57.209 58.5947 54.5684 59.2295 53.1592C59.6865 52.1309 59.7119 51.8262 59.3691 51.4453C59.0264 51.0771 58.5693 50.9756 58.1504 51.1914C57.7441 51.3818 57.1348 52.6768 56.373 54.9492C55.2432 58.3389 54.9385 60.3828 54.7988 65.3848C54.6846 69.625 54.5068 71.3643 53.9736 73.3447C52.958 77.1914 50.6982 79.1719 47.6133 78.9307C45.6074 78.7783 44.3125 77.6738 43.4873 75.4014C42.751 73.3955 42.3955 71.123 41.9766 66.0195C41.7099 62.6934 41.5322 61.8174 40.8086 60.3955C39.9961 58.7705 38.8535 57.9961 37.2539 57.9961C35.7051 57.9961 34.5498 58.7959 33.7373 60.4209C33.1025 61.665 32.8486 62.833 32.6455 65.4482C32.0234 73.2432 31.3887 75.9346 29.7637 77.6484C28.9892 78.4736 28.126 78.8545 26.9199 78.9434C23.9619 79.1338 21.8545 77.3945 20.7373 73.8145C20.0771 71.7324 19.7598 68.7998 19.7598 64.877C19.7598 63.6582 19.6963 62.1348 19.6328 61.5127C19.1504 57.1582 17.5889 52.4482 15.3799 48.6777C14.4023 47.0146 13.9707 46.0625 13.6025 44.666C12.7519 41.4795 12.9678 38.001 14.1738 35.6904C15.1767 33.7734 16.4463 32.5547 18.4267 31.6025C20.1787 30.7519 21.1562 30.5615 23.5683 30.5488C26.1836 30.5488 26.8437 30.6758 31.6933 32.1611C34.7529 33.1006 36.7461 33.3545 38.8281 33.0752C40.6689 32.834 42.5859 32.3135 42.9541 31.9707C43.3096 31.6406 43.3349 30.9932 43.0176 30.5869C42.7002 30.206 42.2051 30.2187 40.707 30.6377C37.7871 31.4502 35.6416 31.3105 31.6933 30.0283C27.2627 28.6064 23.7588 28.1367 21.0674 28.6318Z" fill="#1FBBB3"/>
    </g>
    <defs>
        <clipPath id="clip0_1527_599">
            <rect width="65" height="65" fill="white" transform="translate(11 16)"/>
        </clipPath>
    </defs>
</svg>
