<svg width="88" height="88" viewBox="0 0 88 88" fill="none" xmlns="http://www.w3.org/2000/svg">
    <path d="M37.4062 16.0742C32.9469 16.5201 29.4432 18.0745 27.7104 20.3678C26.4363 22.0496 25.8885 23.8079 25.7866 26.4452C25.7229 27.9614 25.7866 28.7895 26.0669 30.2674C26.1178 30.5223 26.0414 30.6497 25.6337 30.93C24.0666 31.9875 23.9264 35.2364 25.3152 38.0011C26.1306 39.6192 27.2135 40.4856 28.4112 40.4856L28.9972 40.4728L29.354 41.4794C30.2713 44.0658 31.9531 46.7668 33.9407 48.8181C34.6414 49.5443 35.1765 50.1431 35.1383 50.1431C34.8835 50.1431 22.1937 53.1372 21.34 53.392C20.1042 53.7743 18.7282 54.6916 17.9637 55.6599C17.3012 56.4753 16.6259 57.8641 16.4603 58.7304C16.2692 59.6223 13.772 79.7018 13.772 80.2624C13.772 81.4091 15.492 81.562 15.7341 80.4408C15.7723 80.2752 16.3966 75.3572 17.1228 69.5092C18.3714 59.5204 18.4733 58.8196 18.8046 58.1061C19.225 57.227 20.3462 56.0421 21.1489 55.6344C21.6585 55.3669 27.5193 53.9144 27.6212 54.0163C27.6467 54.0418 27.5575 55.0611 27.4301 56.2715C27.1753 58.4501 27.2008 58.8578 27.5575 59.1509C27.6595 59.2401 28.4239 59.4567 29.2521 59.635C30.093 59.8134 30.8447 59.979 30.9211 60.0045C31.0103 60.0427 31.0103 60.3995 30.9084 61.2404C30.8192 61.9029 30.781 62.5399 30.8192 62.6801C30.9211 63.0368 40.1072 73.2422 40.5277 73.4461C40.7188 73.5353 41.0246 73.5862 41.1775 73.548C41.4832 73.4716 50.6184 63.4191 50.9497 62.7948C51.0898 62.5527 51.0898 62.2979 50.9879 61.6099C50.9115 61.1257 50.8477 60.5651 50.8477 60.3613V59.9918L52.4531 59.6605C53.3322 59.4821 54.1349 59.2655 54.2495 59.1764C54.6445 58.8451 54.6573 58.4629 54.4024 56.246C54.275 55.0356 54.1731 54.0291 54.1986 54.0036C54.2241 53.9781 55.5746 54.2711 57.2054 54.6534C60.518 55.4433 61.1168 55.6981 62.0597 56.7301C63.321 58.1061 63.2063 57.5583 64.7352 69.7512L66.0985 80.6319L66.4425 80.9377C66.6336 81.0906 66.8757 81.2307 66.9776 81.2307C67.3598 81.2307 67.9204 80.8357 67.9969 80.5045C68.0988 80.1095 65.5634 59.5204 65.2831 58.4374C65.0538 57.5455 64.353 56.2205 63.716 55.4688C63.0917 54.7553 61.7539 53.838 60.7856 53.4812C60.4034 53.3411 58.4285 52.8442 56.39 52.3728C54.3642 51.9014 51.523 51.2516 50.0833 50.9076C48.6436 50.5763 47.2803 50.2578 47.051 50.2068L46.6305 50.1176L47.8791 48.8181C49.854 46.7795 51.574 44.0275 52.4531 41.5176L52.8226 40.4728H53.5361C53.9692 40.4728 54.4279 40.3964 54.67 40.269C55.3835 39.8995 56.1861 38.9439 56.6958 37.861C58.0081 35.109 57.9189 32.4589 56.4537 31.0319L55.8549 30.4458L56.1607 28.9934C56.5556 27.1077 56.6066 24.2665 56.2881 22.5975C55.8804 20.5462 55.1669 18.7625 54.1476 17.2591C53.4214 16.1888 52.9372 16.0997 52.0072 16.8769C51.0643 17.6668 50.4528 17.9343 49.5609 17.9216C48.8602 17.9216 48.7328 17.9598 48.4143 18.2911C47.9428 18.7498 47.9428 19.1065 48.427 19.5906C48.8092 19.9601 48.8347 19.9729 49.8667 19.9219C50.8605 19.8837 51.4466 19.6926 52.7716 18.9663C52.899 18.8899 53.7272 20.8392 54.0075 21.8585C54.4279 23.3874 54.5808 24.8271 54.5044 26.3688C54.4279 27.732 54.033 29.6686 53.6252 30.6497L53.4341 31.0956L53.1411 30.5223C52.7206 29.6941 52.2747 29.1463 51.574 28.5857C51.0261 28.1652 50.8732 28.1015 50.2617 28.1015C49.7011 28.1015 49.3698 28.2034 48.5544 28.6111C45.8024 30.0254 43.3307 30.3949 39.8269 29.9489C37.9286 29.6941 36.1321 29.2737 34.4758 28.6876C33.7751 28.4328 33.087 28.2289 32.9342 28.2289C32.6666 28.2289 32.1952 28.6748 31.8257 29.2609C31.7238 29.452 31.3033 29.9744 30.9211 30.4331C30.3478 31.0956 30.2076 31.3632 30.2076 31.7199C30.2076 32.2295 30.679 32.6882 31.2014 32.6882C31.5199 32.6882 32.45 31.8473 33.1508 30.9427L33.4565 30.535L34.6414 30.9045C37.024 31.6562 40.2984 32.1786 42.528 32.1786C44.6812 32.1786 47.2421 31.567 49.1787 30.586C49.6756 30.3439 50.1597 30.14 50.2744 30.14C50.5547 30.14 51.3956 31.5033 51.8033 32.6245C52.1218 33.4781 52.1473 33.6947 52.0709 34.5484C51.9817 35.6186 51.4848 38.0139 51.128 39.0714C50.8477 39.8613 50.7968 39.8868 48.2868 40.4728C44.0824 41.4411 38.4382 41.4921 34.0936 40.6003C31.8257 40.1288 30.9721 39.8231 30.8192 39.4536C30.5261 38.7146 29.9528 36.1919 29.7617 34.8414C29.5961 33.6183 29.4814 33.2106 28.9972 32.2423C28.1691 30.5605 27.9015 29.4775 27.8251 27.5154C27.634 22.967 29.3922 20.2914 33.4565 18.9409C35.3804 18.3038 36.7309 18.1127 39.5084 18.1127C42.184 18.1 43.1905 18.2401 45.4202 18.8899C46.4522 19.1957 46.5796 19.2084 46.8854 19.0428C47.5988 18.6351 47.6498 17.7814 46.9873 17.3483C46.5668 17.068 44.8723 16.5711 43.4453 16.3163C42.2987 16.1124 38.5529 15.9595 37.4062 16.0742ZM27.7104 34.8541C27.7614 35.3128 27.927 36.2939 28.0926 37.0456C28.4112 38.5617 28.3347 38.7401 27.7104 38.0011C26.6402 36.7398 26.0923 34.319 26.5892 33.0704L26.8058 32.5481L27.2135 33.287C27.4938 33.7967 27.6467 34.2808 27.7104 34.8541ZM55.5491 33.631C55.6638 34.2171 55.5618 35.1727 55.2943 35.9881C54.8866 37.2239 54.0839 38.4216 53.6507 38.4216C53.4469 38.4216 53.4469 38.3579 53.6507 37.4788C53.7781 36.9691 53.9565 36.0008 54.033 35.351C54.1604 34.4082 54.2878 33.975 54.6445 33.3507C55.0522 32.5863 55.0904 32.5608 55.2561 32.8029C55.358 32.943 55.4854 33.3125 55.5491 33.631ZM33.5202 42.5496C36.2213 43.1229 38.349 43.3013 41.8018 43.2249C44.9615 43.1612 46.5414 42.9828 48.6563 42.4859C49.2424 42.3585 49.7775 42.2438 49.854 42.2438C49.9177 42.2438 49.7138 42.7407 49.3826 43.3523C47.1911 47.4166 44.3372 49.8883 41.4705 50.2068C38.8586 50.4999 35.7881 48.5633 33.5839 45.2379C32.7558 43.9638 31.8002 42.2438 31.9531 42.2438C32.0041 42.2438 32.7176 42.384 33.5202 42.5496ZM38.6166 51.9523C39.8397 52.3473 41.9037 52.3473 43.1778 51.9523C43.7001 51.7867 44.1716 51.672 44.2225 51.6975C44.3372 51.7357 41.0628 55.4306 40.9227 55.4306C40.8717 55.4306 40.2729 54.7935 39.5849 54.0291C38.8841 53.2519 38.1197 52.411 37.8649 52.1434C37.3425 51.5956 37.4571 51.5701 38.6166 51.9523ZM37.2915 54.5514C38.4127 55.7746 39.33 56.8321 39.3555 56.883C39.381 56.9595 38.2216 57.9787 37.2023 58.7687C37.024 58.9088 36.8966 58.6285 36.0684 56.3606C35.546 54.9464 35.0237 53.6851 34.8962 53.5577C34.3484 53.0098 33.2654 53.4812 33.2654 54.2584C33.2654 54.475 34.1573 57.0869 35.253 60.0682C38.1324 67.9293 38.1452 67.9293 37.9413 67.7254C37.8394 67.6235 36.6545 66.3112 35.3167 64.8205C33.6731 62.9859 32.8832 62.0176 32.8832 61.8265C32.8959 61.6736 32.9724 60.9983 33.0616 60.3358C33.3291 58.4756 33.2145 58.3355 30.9721 57.9023C30.1694 57.7494 29.4687 57.5838 29.4177 57.5455C29.3285 57.4564 29.7362 53.6341 29.8636 53.5067C29.9655 53.4048 35.0874 52.2071 35.1893 52.2581C35.2402 52.2836 36.1831 53.3156 37.2915 54.5514ZM49.4845 52.8697C50.8095 53.1754 51.918 53.4685 51.9562 53.5067C52.0836 53.6341 52.5041 57.4564 52.4021 57.5455C52.3512 57.5965 51.6377 57.7621 50.8095 57.915C49.8794 58.0934 49.1914 58.2972 49.0003 58.4501C48.6308 58.7432 48.6054 59.0872 48.822 60.9091L48.9748 62.094L46.6433 64.6804C45.3565 66.1074 44.1716 67.4197 44.0059 67.598L43.7001 67.9166L43.8913 67.4069C43.9804 67.1266 45.0762 64.1453 46.312 60.7817C47.5479 57.4181 48.5544 54.526 48.5544 54.3476C48.5417 53.4048 47.2294 53.048 46.7325 53.8634C46.6305 54.0291 46.1846 55.163 45.7514 56.3861C45.3055 57.6092 44.9105 58.6667 44.8596 58.7304C44.7449 58.8451 42.4133 57.0359 42.4643 56.883C42.4898 56.8321 43.4326 55.7618 44.5793 54.5005C46.019 52.9079 46.7197 52.2199 46.8726 52.2581C46.9873 52.2836 48.1722 52.5639 49.4845 52.8697ZM42.6299 59.7242C43.611 60.5014 44.0824 60.9601 44.0314 61.0747C43.9932 61.1767 43.2924 63.0878 42.477 65.3174C41.6616 67.5598 40.9609 69.3818 40.9099 69.3818C40.8589 69.3818 40.2346 67.7637 39.5084 65.7761C38.7949 63.8013 38.0942 61.9156 37.9668 61.5844L37.7374 60.9983L39.2918 59.7115C40.1455 58.998 40.9099 58.4501 40.9991 58.4756C41.0883 58.5138 41.8145 59.0744 42.6299 59.7242Z" fill="#1FBBB3"/>
    <path d="M48.1721 71.9682C47.5223 72.2994 47.3949 73.1531 47.9427 73.6117C48.1721 73.8156 48.5925 73.8411 52.5677 73.8411H56.9505L57.2053 73.5098C57.5748 73.0511 57.5493 72.5542 57.1416 72.172L56.8103 71.8662L52.6568 71.828C49.4716 71.8025 48.4141 71.8408 48.1721 71.9682Z" fill="#1FBBB3"/>
    <path d="M40.1582 75.1916C39.9034 75.5101 39.8906 75.7012 39.8906 78.071C39.8906 80.5937 39.8906 80.6064 40.2091 80.9122C40.6169 81.3327 41.2029 81.3327 41.6106 80.9122C41.9292 80.6064 41.9292 80.5937 41.9292 78.0455C41.9292 75.4974 41.9292 75.4846 41.6106 75.1788C41.1774 74.7329 40.5149 74.7456 40.1582 75.1916Z" fill="#1FBBB3"/>
</svg>
