<svg width="24" height="29" viewBox="0 0 24 29" fill="none" xmlns="http://www.w3.org/2000/svg">
<g clip-path="url(#clip0_1550_2982)">
<path d="M18.0078 0.500114C18.9049 0.748753 19.8461 0.828959 20.7122 1.1876C21.403 1.47748 22.0841 1.7731 22.6568 2.26121C23.9786 3.39212 24.1396 4.86563 23.9153 6.40329C23.5873 8.64105 22.6031 10.6817 21.7191 12.7499C21.2586 13.8247 21.1703 14.9579 21.267 16.1083C21.4376 18.1363 21.768 20.1552 21.5891 22.2005C21.4531 23.7439 20.7277 25.0318 19.7078 26.1844C19.0657 26.9135 18.3429 27.5732 17.5521 28.1518C17.43 28.2491 17.2986 28.335 17.1596 28.4085C17.0554 28.4665 16.9363 28.4954 16.8159 28.4917C16.6955 28.4881 16.5786 28.4521 16.4784 28.3878C16.2685 28.2423 16.3293 28.0177 16.3746 27.8081C16.6972 26.355 16.8397 24.8704 16.7993 23.3852C16.7277 21.0341 15.9225 18.9602 14.2201 17.2392C14.0505 17.0779 13.8725 16.9249 13.6869 16.7808C12.2756 15.6144 11.6195 15.6201 10.2631 16.8106C8.37463 18.472 7.36061 20.5104 7.25086 22.9865C7.16978 24.5811 7.28995 26.1793 7.60875 27.7462C7.65289 27.9581 7.72805 28.2286 7.4978 28.3867C7.39254 28.4618 7.26444 28.5015 7.13333 28.4996C7.00221 28.4977 6.87539 28.4544 6.77248 28.3764C4.88045 27.0014 3.2103 25.4546 2.58758 23.1435C2.22969 21.8304 2.3633 20.499 2.43726 19.1687C2.54344 17.2598 3.09458 15.3406 2.48021 13.4397C2.04716 12.1025 1.45784 10.8123 0.929359 9.50384C0.452174 8.33054 0.0835491 7.11942 0.0107785 5.86935C-0.129991 3.43452 0.845851 2.0882 3.30335 1.18187C4.13843 0.874792 4.98781 0.635319 5.8885 0.608965C5.92826 0.611854 5.96793 0.602237 6.0015 0.581567C6.03507 0.560896 6.06073 0.530295 6.0746 0.494385H6.90967C6.94253 0.539529 6.98689 0.575824 7.03851 0.599799C8.13818 0.691366 9.21635 0.946486 10.2345 1.35603C11.4358 1.82352 12.5965 1.86018 13.7787 1.34457C13.9935 1.25062 14.2285 1.20249 14.448 1.11541C15.3272 0.79344 16.2708 0.729274 17.1727 0.500114H18.0078ZM17.607 26.9074C19.1268 25.6906 20.3782 23.9215 20.5572 22.3151C20.7552 20.5322 20.4844 18.7814 20.3281 17.0215C20.1575 15.1114 20.1706 13.2403 21.1178 11.4723C22.0925 9.65508 22.788 7.74159 22.9562 5.6929C23.0516 4.5299 22.7653 3.42191 21.7382 2.68402C20.6801 1.93764 19.4216 1.49789 18.1116 1.41676C16.781 1.32672 15.4476 1.55013 14.2273 2.06757C12.717 2.67714 11.2509 2.6485 9.74534 2.05612C8.22074 1.45571 6.62456 1.16812 4.99139 1.5428C3.73759 1.83039 2.48617 2.19132 1.67496 3.27525C0.795747 4.45199 0.96992 5.77081 1.23714 7.06671C1.66661 9.13833 2.67705 11.0255 3.38447 13.01C3.49184 13.3091 3.66482 13.5829 3.69106 13.9129C3.85808 15.9375 3.57177 17.9427 3.37851 19.949C3.15423 22.2853 3.69822 24.3661 5.45188 26.0744C5.72626 26.346 5.96485 26.684 6.38477 26.8536C6.21418 25.293 6.11636 23.7828 6.29291 22.2555C6.57803 19.7851 7.73401 17.78 9.64752 16.1552C11.0791 14.9384 12.3639 14.7803 13.7251 15.7095C16.2756 17.4546 17.5795 19.8825 17.7632 22.8651C17.8412 24.2143 17.7889 25.5675 17.607 26.9074Z" fill="#1FBBB3"/>
<path d="M13.4578 6.6152C13.323 6.98988 13.255 7.42757 12.7038 6.95207C12.5404 6.81113 12.346 6.85811 12.167 7.00592C11.8378 7.28893 11.629 7.18123 11.5705 6.79051C11.5276 6.49718 11.4119 6.36083 11.0767 6.35739C10.7414 6.35396 10.6174 6.10417 10.8178 5.86355C11.0456 5.58741 11.0564 5.40523 10.8345 5.11649C10.6412 4.8667 10.7068 4.60775 11.1172 4.61119C11.419 4.61119 11.5479 4.46682 11.5705 4.1987C11.6051 3.77819 11.8258 3.69684 12.1515 3.94548C12.4056 4.14026 12.5917 4.11162 12.8291 3.92371C13.1047 3.70486 13.3278 3.80913 13.3636 4.13224C13.3934 4.39578 13.4829 4.54817 13.8312 4.65358C13.7322 4.25255 13.6606 3.91454 14.1712 3.816C14.3645 3.77934 14.3406 3.55705 14.3358 3.37487C14.3263 2.98644 14.5923 2.81915 14.9049 3.03113C15.1625 3.20414 15.3415 3.19383 15.592 3.01852C15.8676 2.82488 16.1885 3.01852 16.1348 3.34164C16.0859 3.64528 16.1467 3.8309 16.47 3.88819C16.6788 3.926 16.6979 4.06235 16.7003 4.23193C16.7056 4.26918 16.7031 4.30709 16.6929 4.34339C16.6826 4.3797 16.6649 4.41366 16.6408 4.44326C16.6166 4.47287 16.5866 4.49751 16.5523 4.51573C16.5181 4.53395 16.4803 4.54537 16.4414 4.54932C16.1754 4.61692 16.0298 4.80598 16.1408 5.07066C16.2243 5.26888 16.1253 5.35367 15.9845 5.4396C15.8437 5.52554 15.7161 5.59314 15.5693 5.42815C15.499 5.34909 15.3451 5.25284 15.2723 5.27919C14.8703 5.42013 14.467 5.70085 14.1783 5.12107C14.1231 5.11592 14.0679 5.13062 14.0233 5.16232C13.9302 5.31471 13.8646 5.50606 13.9744 5.65043C14.1473 5.87959 14.3108 6.0698 14.071 6.34594C13.9875 6.44218 14.071 6.52239 14.1783 6.5476C14.212 6.55826 14.2476 6.56239 14.2829 6.55973C14.3183 6.55707 14.3527 6.54769 14.3842 6.53212C14.4158 6.51655 14.4438 6.49511 14.4666 6.46904C14.4894 6.44298 14.5066 6.41282 14.5172 6.38031C14.6531 5.81657 14.8953 5.7146 15.3522 6.13511C15.5276 6.29781 15.7161 6.19584 15.8735 6.04574C16.1718 5.76272 16.3985 5.81657 16.5189 6.20156C16.6096 6.49374 16.7754 6.58426 17.0975 6.51322C17.4769 6.42958 17.6666 6.56708 17.5449 6.97957C17.4626 7.25914 17.552 7.43789 17.8956 7.51007C18.2392 7.58226 18.312 7.83204 18.0567 8.08297C17.836 8.30297 17.7966 8.50005 18.028 8.72233C18.3346 9.0168 18.2726 9.22419 17.8634 9.32732C17.5747 9.40065 17.4757 9.57481 17.527 9.8372C17.6069 10.2382 17.4912 10.4261 17.0331 10.2955C16.7384 10.2142 16.5822 10.3746 16.5094 10.6221C16.3901 11.0254 16.1718 11.0506 15.87 10.7928C15.6314 10.5911 15.431 10.6278 15.1912 10.8192C14.9299 11.0288 14.6877 11.0116 14.5947 10.6324C14.5231 10.3482 14.3561 10.1741 14.04 10.3161C13.8217 10.4147 13.7119 10.3161 13.5783 10.1901C13.496 10.1133 13.4327 9.90136 13.2705 10.0881C13.1596 10.2153 13.1512 10.4204 13.2801 10.5075C13.725 10.8043 13.737 11.0518 13.2956 11.3691C13.1238 11.4929 13.187 11.7049 13.3325 11.879C13.5532 12.1437 13.465 12.3373 13.1309 12.4107C12.773 12.484 12.6812 12.6742 12.7874 12.9927C12.9007 13.3296 12.7241 13.4637 12.402 13.4362C12.0274 13.4029 11.8449 13.5129 11.8568 13.9048C11.8664 14.2165 11.6373 14.3127 11.3797 14.1695C11.0337 13.9758 10.8464 14.0354 10.6997 14.3883C10.5649 14.7126 10.3299 14.6943 10.1032 14.4662C9.87653 14.2382 9.67373 14.2039 9.44349 14.4319C9.16791 14.7046 8.95676 14.7435 8.7969 14.3173C8.70027 14.0629 8.49031 13.9735 8.22189 14.1122C7.864 14.2967 7.65524 14.2451 7.64211 13.8143C7.63376 13.5313 7.47033 13.3972 7.17805 13.4247C6.78557 13.4614 6.60185 13.3571 6.75336 12.9389C6.86192 12.6398 6.69132 12.4806 6.38831 12.4107C6.04355 12.3339 5.97316 12.1426 6.19147 11.8767C6.39308 11.6315 6.37638 11.4276 6.10558 11.2511C5.80376 11.0552 5.76201 10.8604 6.08888 10.645C6.3394 10.48 6.42529 10.276 6.20817 10.0205C5.96958 9.73637 6.03042 9.53127 6.40263 9.44763C6.72115 9.37659 6.85357 9.19784 6.74978 8.91024C6.61736 8.54359 6.76171 8.40151 7.12675 8.42671C7.4918 8.45192 7.63018 8.33161 7.64569 7.97756C7.66001 7.65788 7.86401 7.54445 8.17179 7.72548C8.46049 7.89621 8.68596 7.81486 8.79452 7.53643C8.9663 7.09873 9.17149 7.17435 9.43871 7.44476C9.64152 7.65101 9.85744 7.63726 10.0555 7.43101C10.331 7.14456 10.5446 7.13998 10.7116 7.53299C10.8309 7.81944 11.0373 7.88246 11.3284 7.71517C11.6457 7.53184 11.8127 7.6659 11.8318 7.9936C11.8509 8.3213 12.0358 8.47484 12.3782 8.41984C12.4462 8.40671 12.5166 8.41233 12.5815 8.43605C12.6463 8.45978 12.7028 8.50063 12.7444 8.5539C12.8434 8.66275 12.9317 8.8415 13.1154 8.66848C13.2586 8.52984 13.2956 8.33505 13.1548 8.20214C12.7253 7.79652 12.8267 7.61663 13.3755 7.43445C13.8539 7.28091 13.4041 6.89019 13.4578 6.6152ZM9.78229 13.2322C10.0966 13.2293 10.4071 13.1669 10.6963 13.0487C10.9855 12.9305 11.2476 12.7587 11.4676 12.5432C11.6877 12.3277 11.8614 12.0727 11.9788 11.7927C12.0963 11.5127 12.1552 11.2132 12.1521 10.9114C12.149 10.6095 12.0841 10.3112 11.961 10.0335C11.838 9.75576 11.6591 9.50402 11.4347 9.29266C11.2104 9.0813 10.9448 8.91446 10.6533 8.80166C10.3618 8.68886 10.05 8.63232 9.73576 8.63525C8.27438 8.63525 7.41426 9.58168 7.40949 11.3302C7.4071 12.1964 8.44021 13.3021 9.78229 13.2322ZM15.5538 9.10732C15.9857 9.07868 16.2696 8.84722 16.2696 8.42901C16.2696 8.01079 16.0072 7.73465 15.561 7.73121C15.1148 7.72777 14.8357 7.98443 14.8309 8.40609C14.8261 8.82775 15.085 9.06607 15.5479 9.10388L15.5538 9.10732ZM13.1464 5.46367C13.1047 5.06149 12.8804 4.83004 12.4569 4.84379C12.0334 4.85754 11.7948 5.09243 11.8044 5.4969C11.8139 5.90136 12.068 6.12823 12.4867 6.12021C12.9055 6.11219 13.1166 5.86011 13.1464 5.46367ZM15.2699 4.61233C15.524 4.57338 15.6564 4.43015 15.6338 4.18037C15.634 4.13208 15.6237 4.08427 15.6035 4.04007C15.5832 3.99587 15.5535 3.95626 15.5162 3.92383C15.479 3.8914 15.435 3.86687 15.3872 3.85185C15.3394 3.83682 15.2889 3.83163 15.2389 3.83663C15.1835 3.8326 15.1279 3.84019 15.0759 3.85887C15.0239 3.87756 14.9767 3.90688 14.9377 3.94481C14.8986 3.98274 14.8686 4.02838 14.8498 4.07855C14.8309 4.12872 14.8237 4.18223 14.8285 4.23537C14.8333 4.47828 15.011 4.59744 15.2699 4.61233Z" fill="#1FBBB3"/>
<path d="M9.78234 13.2321C8.44503 13.302 7.41192 12.2009 7.41431 11.3312C7.41431 9.58155 8.27563 8.63512 9.73581 8.63512C10.0501 8.63218 10.3619 8.68873 10.6534 8.80153C10.9449 8.91433 11.2104 9.08117 11.4348 9.29253C11.6592 9.50389 11.838 9.75563 11.9611 10.0334C12.0842 10.3111 12.1491 10.6094 12.1522 10.9113C12.1552 11.2131 12.0963 11.5126 11.9789 11.7925C11.8615 12.0725 11.6877 12.3276 11.4677 12.5431C11.2476 12.7586 10.9855 12.9303 10.6964 13.0486C10.4072 13.1668 10.0966 13.2291 9.78234 13.2321ZM9.73104 8.85397C9.16374 8.87145 8.62618 9.10185 8.23373 9.4957C7.84129 9.88956 7.62524 10.4155 7.63196 10.9606C7.63867 11.5057 7.86761 12.0266 8.26965 12.4114C8.67168 12.7963 9.21476 13.0144 9.78234 13.019C10.0708 13.0213 10.3569 12.9683 10.6238 12.8631C10.8908 12.758 11.1331 12.6027 11.3368 12.4064C11.5405 12.2101 11.7013 11.9768 11.8099 11.7201C11.9185 11.4634 11.9727 11.1884 11.9693 10.9113C11.9658 10.6342 11.9049 10.3606 11.79 10.1064C11.6751 9.85223 11.5086 9.62262 11.3001 9.43103C11.0917 9.23944 10.8456 9.08971 10.5761 8.99063C10.3067 8.89154 10.0194 8.84508 9.73104 8.85397Z" fill="white"/>
<path d="M15.5479 9.10385C15.085 9.06604 14.8238 8.8174 14.8321 8.40147C14.8405 7.98555 15.1232 7.72316 15.5622 7.7266C16.0012 7.73003 16.278 8.01419 16.2708 8.42439C16.2637 8.83459 15.9857 9.07406 15.5479 9.10385Z" fill="white"/>
<path d="M13.1464 5.46372C13.1154 5.86017 12.9078 6.1111 12.4867 6.11912C12.0656 6.12714 11.8103 5.90027 11.8103 5.49695C11.8103 5.09362 12.0489 4.85759 12.4629 4.84384C12.8768 4.83009 13.1047 5.06269 13.1464 5.46372Z" fill="white"/>
<path d="M15.2699 4.61236C15.0146 4.59747 14.8368 4.4783 14.8285 4.2331C14.8236 4.17996 14.8309 4.12646 14.8498 4.07628C14.8686 4.02611 14.8986 3.98048 14.9376 3.94255C14.9767 3.90461 15.0238 3.87529 15.0758 3.85661C15.1279 3.83793 15.1835 3.83034 15.2389 3.83436C15.2889 3.82937 15.3394 3.83456 15.3872 3.84958C15.435 3.86461 15.4789 3.88913 15.5162 3.92157C15.5534 3.954 15.5832 3.9936 15.6034 4.0378C15.6237 4.08201 15.634 4.12981 15.6337 4.1781C15.6528 4.43018 15.5204 4.5734 15.2699 4.61236Z" fill="white"/>
<path d="M9.73095 8.8541C10.0193 8.84521 10.3066 8.89167 10.576 8.99076C10.8455 9.08985 11.0916 9.23957 11.3001 9.43116C11.5085 9.62276 11.675 9.85237 11.7899 10.1065C11.9048 10.3607 11.9658 10.6344 11.9692 10.9115C11.9726 11.1885 11.9184 11.4635 11.8098 11.7202C11.7012 11.9769 11.5404 12.2103 11.3367 12.4065C11.133 12.6028 10.8907 12.7581 10.6237 12.8633C10.3568 12.9685 10.0707 13.0214 9.78225 13.0191C9.21467 13.0145 8.67159 12.7964 8.26955 12.4116C7.86752 12.0267 7.63858 11.5059 7.63187 10.9607C7.62515 10.4156 7.8412 9.88969 8.23364 9.49584C8.62609 9.10198 9.16365 8.87159 9.73095 8.8541ZM10.7438 10.9498C10.7514 10.8259 10.7326 10.7019 10.6885 10.5853C10.6444 10.4687 10.576 10.362 10.4874 10.2718C10.3988 10.1815 10.2919 10.1096 10.1733 10.0605C10.0547 10.0114 9.92691 9.98609 9.79776 9.98615C9.66325 9.97722 9.52827 9.99489 9.40116 10.0381C9.27405 10.0813 9.15752 10.149 9.05877 10.2372C8.96003 10.3254 8.88118 10.4321 8.8271 10.5507C8.77302 10.6693 8.74487 10.7974 8.74437 10.9269C8.74626 11.187 8.85494 11.436 9.04681 11.6196C9.23869 11.8033 9.49825 11.9068 9.76913 11.9077C10.0297 11.902 10.2776 11.7985 10.4597 11.6195C10.6419 11.4405 10.7438 11.2001 10.7438 10.9498Z" fill="#1FBBB3"/>
<path d="M10.7438 10.9497C10.7429 11.1995 10.6406 11.439 10.4585 11.6173C10.2764 11.7956 10.0291 11.8985 9.76914 11.9042C9.49888 11.9033 9.23985 11.8003 9.04807 11.6174C8.8563 11.4345 8.7472 11.1864 8.74438 10.9268C8.74537 10.7976 8.77388 10.67 8.82818 10.5518C8.88247 10.4335 8.9614 10.3273 9.06009 10.2394C9.15877 10.1516 9.27514 10.0842 9.40201 10.0412C9.52888 9.99821 9.66356 9.98064 9.79777 9.98956C9.9266 9.98953 10.0541 10.0147 10.1724 10.0636C10.2908 10.1126 10.3975 10.1841 10.486 10.274C10.5746 10.3639 10.6431 10.4702 10.6874 10.5864C10.7318 10.7025 10.7509 10.8262 10.7438 10.9497Z" fill="white"/>
</g>
<defs>
<clipPath id="clip0_1550_2982">
<rect width="24" height="28" fill="white" transform="translate(0 0.5)"/>
</clipPath>
</defs>
</svg>
