<svg width="29" height="25" viewBox="0 0 29 25" fill="none" xmlns="http://www.w3.org/2000/svg">
<path d="M11.5131 8.09483C10.9101 7.68734 10.2015 7.46251 9.4728 7.44754C8.84129 7.47224 8.22192 7.62802 7.65442 7.90491C7.40011 8.03614 7.12469 8.12207 6.84062 8.15878C6.60881 8.13438 6.38329 8.06874 6.17479 7.96498C6.29757 6.4807 6.87767 5.07033 7.83586 3.92652C8.79404 2.78271 10.0836 1.96124 11.5284 1.57431C12.9731 1.18738 14.5027 1.25386 15.9081 1.76467C17.3135 2.27548 18.5262 3.20571 19.3806 4.4283C20.2349 5.65089 20.6893 7.10622 20.6817 8.59552C20.674 10.0848 20.2047 11.5354 19.3378 12.7493C18.4709 13.9631 17.2487 14.8809 15.8381 15.3774C14.4275 15.8738 12.8974 15.9247 11.4567 15.5231C11.5365 15.1588 11.6922 14.6879 11.8655 14.1665C12.5372 12.1181 13.46 9.3177 11.5131 8.09483ZM10.6915 18.0735C10.7811 19.2034 10.8746 20.372 10.637 21.2382C10.4415 21.8777 10.1176 22.4711 9.68501 22.9824C9.78625 21.8952 9.82713 20.2421 9.36378 18.9689C8.71741 17.2053 7.5746 16.151 6.84062 16.151C6.10665 16.151 4.96383 17.2053 4.31942 18.9689C3.85411 20.2441 3.89694 21.8952 3.99818 22.9824C3.5656 22.4711 3.24173 21.8777 3.04616 21.2382C2.80864 20.372 2.90209 19.2014 2.99165 18.0716C3.07591 17.3072 3.09804 16.5372 3.05784 15.7692C3.01501 15.3003 2.80475 14.6607 2.56139 13.9185C1.97732 12.1161 1.15769 9.65491 2.58864 8.75181C3.06687 8.42389 3.62995 8.24019 4.21039 8.22274C4.73668 8.2469 5.25231 8.37884 5.72506 8.61033C6.07161 8.7916 6.45072 8.90291 6.84062 8.93785C7.23036 8.90668 7.6101 8.79934 7.95813 8.62196C8.43027 8.39068 8.94522 8.25873 9.47085 8.23436C10.0513 8.25182 10.6144 8.43552 11.0926 8.76343C12.5236 9.65297 11.7078 12.1278 11.1238 13.9223C10.8804 14.6627 10.6701 15.3022 10.6273 15.7712C10.5871 16.5398 10.6092 17.3104 10.6935 18.0754M19.1371 2.86033C18.0613 1.78619 16.7025 1.03659 15.2172 0.697969C13.732 0.359345 12.1808 0.445489 10.7426 0.946468C9.3044 1.44745 8.03774 2.34286 7.08866 3.52945C6.13959 4.71604 5.54675 6.14549 5.37852 7.65297C5.00307 7.52128 4.60844 7.45188 4.21039 7.44754C3.48109 7.46225 2.77171 7.68709 2.16812 8.09483C0.22124 9.3177 1.14406 12.1181 1.81573 14.1627C2.02045 14.707 2.17489 15.2687 2.27714 15.841C2.31187 16.5658 2.28909 17.2922 2.209 18.0134C2.1136 19.2092 2.01431 20.4456 2.28882 21.4437C2.74829 23.1239 4.2357 24.3506 4.29411 24.4107C4.35586 24.4635 4.43267 24.4957 4.51376 24.5028C4.59484 24.5099 4.67612 24.4915 4.74616 24.4502C4.8162 24.4089 4.87149 24.3468 4.90425 24.2727C4.93701 24.1985 4.94559 24.116 4.92879 24.0367C4.92879 24.0076 4.37588 21.0987 5.05728 19.2344C5.61214 17.715 6.56027 16.932 6.84257 16.932C7.12487 16.932 8.073 17.7072 8.62786 19.2344C9.30342 21.0832 8.76025 24.0096 8.75635 24.0386C8.74169 24.1185 8.75259 24.2009 8.78752 24.2743C8.82246 24.3477 8.87965 24.4083 8.95104 24.4475C9.02057 24.4871 9.10047 24.505 9.18033 24.4988C9.26019 24.4925 9.33632 24.4625 9.39882 24.4127C9.46112 24.3603 10.9427 23.1297 11.4041 21.4456C11.6767 20.4475 11.5793 19.2111 11.4839 18.0115C11.4372 17.4204 11.3924 16.8487 11.3944 16.3506C13.1121 16.7906 14.9274 16.6565 16.5611 15.9691C18.1947 15.2817 19.5562 14.0789 20.4361 12.5459C21.3159 11.013 21.6654 9.23466 21.4307 7.48465C21.196 5.73464 20.3901 4.10987 19.1371 2.86033Z" fill="#1FBBB3"/>
<path d="M29 23.0368L27.9662 24.0659L20.1398 16.2791L21.1736 15.25L29 23.0368Z" fill="#1FBBB3"/>
<path d="M20.9769 15.0524L19.9412 16.0815L19.433 15.5757L20.4668 14.5447L20.9769 15.0524Z" fill="#1FBBB3"/>
<path d="M20.3286 14.4089L19.2948 15.4379L18.7847 14.9321L19.8205 13.9011L20.3286 14.4089Z" fill="#1FBBB3"/>
</svg>
