<svg width="36" height="13" viewBox="0 0 36 13" fill="none" xmlns="http://www.w3.org/2000/svg">
<path d="M15.3357 0.543107C16.3483 0.505777 17.2817 1.40456 17.5226 3.48927C17.7636 5.57398 17.9466 6.32057 17.2786 6.55029C16.6106 6.78001 13.9967 7.0126 13.5056 6.49286C13.0145 5.97311 12.8407 3.607 13.2006 2.44978C13.5605 1.29257 14.3139 0.583308 15.3357 0.543107Z" fill="#1FBBB3"/>
<path d="M12.7492 2.91217C12.7492 2.91217 11.2241 0.689629 10.4707 0.976779C9.71735 1.26393 9.13477 4.18137 9.34523 4.79013C9.55569 5.39889 10.1047 5.97319 10.6507 6.06221C11.309 6.09658 11.9693 6.07736 12.6241 6.00478C12.5075 5.49261 12.4563 4.96916 12.4716 4.44555C12.514 3.92864 12.6059 3.4164 12.7461 2.91504" fill="#1FBBB3"/>
<path d="M9.07375 2.73985C9.07375 2.73985 7.46327 0.284718 6.85629 0.514438C6.24931 0.744158 6.31031 3.09879 6.58178 4.15263C6.85324 5.20647 6.97524 6.03059 7.55477 6.08802C8.1343 6.14545 9.13475 5.27826 9.13475 5.27826C9.03456 4.85035 8.97334 4.41517 8.95174 3.97747C8.96455 3.56196 9.0053 3.14764 9.07375 2.73698" fill="#1FBBB3"/>
<path d="M6.03579 2.65367C6.03579 2.65367 4.73032 1.07435 4.39481 1.26674C4.05929 1.45913 4.2728 3.23085 4.60832 3.86545C4.94384 4.50005 5.06279 5.25238 5.48981 5.33853C5.77415 5.38598 6.06656 5.36625 6.3408 5.2811C6.18978 4.86709 6.07751 4.44145 6.00529 4.00902C5.97591 3.55626 5.98611 3.10199 6.03579 2.6508" fill="#1FBBB3"/>
<path d="M4.12036 3.54666C3.78485 2.88335 3.20532 1.41027 3.02536 1.4677C2.8454 1.52513 3.13517 3.57538 3.27242 4.23295C3.40968 4.89052 3.44018 5.0944 3.7879 5.16619C4.13561 5.23798 4.57789 5.16619 4.63889 5.08004C4.69989 4.9939 4.12341 3.54953 4.12341 3.54953" fill="#1FBBB3"/>
<path d="M2.05533 1.49658C1.78081 1.64016 1.71981 2.73707 1.93332 3.43197C2.14683 4.12688 2.5708 4.5576 2.78431 4.47146C2.99782 4.38531 2.87582 3.25968 2.72331 2.65093C2.58908 2.22803 2.36145 1.83662 2.05533 1.50233" fill="#1FBBB3"/>
<path d="M17.4312 7.87979C17.7942 8.16694 17.4617 11.518 16.7327 11.9229C16.0037 12.3277 15.8817 12.1239 15.4273 11.5467C14.9728 10.9695 14.1157 8.16981 14.7257 7.9085C15.3358 7.6472 17.4312 7.87979 17.4312 7.87979Z" fill="#1FBBB3"/>
<path d="M11.2607 7.56116C11.7152 7.27401 13.7527 7.53245 14.0272 7.90861C14.3017 8.28478 14.0272 11.1132 13.4172 11.7794C12.8071 12.4456 12.2306 12.5604 11.8067 11.8943C11.3827 11.2281 10.8062 7.85118 11.2607 7.56116Z" fill="#1FBBB3"/>
<path d="M8.1008 7.10446C8.67728 6.81731 10.4403 7.45191 10.6538 7.76778C10.8673 8.08364 10.8978 9.77783 10.7148 10.3091C10.5318 10.8403 9.46727 12.5029 8.88469 12.5029C8.30211 12.5029 8.0032 10.8001 7.96965 9.63138C7.93609 8.46268 7.52432 7.39161 8.1008 7.10446Z" fill="#1FBBB3"/>
<path d="M5.91381 6.98399C6.27983 6.86913 7.21928 7.12756 7.37178 7.36015C7.52429 7.59274 7.46329 7.93445 7.41754 8.58628C7.37178 9.23811 7.63105 9.44773 7.60054 9.62577C7.57004 9.8038 6.21883 11.0271 5.82231 10.9696C5.42579 10.9122 5.12382 9.75786 5.27023 8.74709C5.41664 7.73632 5.54475 7.10172 5.90771 6.98399" fill="#1FBBB3"/>
<path d="M3.72682 6.81738C3.27235 6.98967 2.84533 7.36584 2.69282 8.52018C2.54032 9.67453 2.54032 10.8174 2.87583 10.8605C3.21135 10.9035 3.57432 10.2632 4.03184 9.97603C4.38261 9.75493 4.79133 9.74344 4.91333 9.55679C5.03534 9.37015 4.85233 8.5891 4.98959 8.14114C5.12684 7.69319 5.45931 7.13038 5.37085 7.01552C5.2824 6.90066 3.72682 6.81738 3.72682 6.81738Z" fill="#1FBBB3"/>
<path d="M2.17737 6.08794C1.75034 6.14537 1.17387 7.35714 1.02136 8.33919C0.868852 9.32124 1.52463 9.71464 1.91505 9.51076C2.30547 9.30689 2.12856 8.64931 2.50678 7.75053C2.67454 7.3514 3.34252 6.72541 3.29677 6.55312C3.25102 6.38083 2.59829 6.03338 2.17127 6.09081" fill="#1FBBB3"/>
<path d="M20.6674 0.543107C19.6548 0.505777 18.7214 1.40456 18.4805 3.48927C18.2395 5.57398 18.0565 6.32057 18.7245 6.55029C19.3925 6.78001 22.0064 7.0126 22.4914 6.49286C22.9764 5.97311 23.1594 3.60413 22.7964 2.44978C22.4335 1.29544 21.6831 0.583308 20.6613 0.543107" fill="#1FBBB3"/>
<path d="M23.2509 2.91217C23.2509 2.91217 24.7759 0.689629 25.5293 0.976779C26.2827 1.26393 26.8653 4.18425 26.6518 4.79013C26.4383 5.39602 25.8923 5.97319 25.3463 6.06221C24.6869 6.09673 24.0256 6.07751 23.3698 6.00478C23.4861 5.49257 23.5373 4.96915 23.5223 4.44555C23.4798 3.92866 23.3879 3.41642 23.2478 2.91504" fill="#1FBBB3"/>
<path d="M26.9262 2.73985C26.9262 2.73985 28.5367 0.284718 29.1437 0.514438C29.7507 0.744158 29.6897 3.09879 29.4182 4.15263C29.1467 5.20647 29.0217 6.03059 28.4513 6.08802C27.8809 6.14545 26.8713 5.27826 26.8713 5.27826C26.9715 4.85035 27.0327 4.41517 27.0543 3.97747C27.0394 3.5628 26.9966 3.14944 26.9262 2.73985Z" fill="#1FBBB3"/>
<path d="M29.9764 2.65367C29.9764 2.65367 31.2697 1.07435 31.6052 1.26674C31.9407 1.45913 31.7272 3.23085 31.3917 3.86545C31.0561 4.50005 30.9372 5.25238 30.5102 5.33853C30.2258 5.38598 29.9334 5.36625 29.6592 5.2811C29.8091 4.867 29.9204 4.44135 29.9916 4.00902C30.026 3.55761 30.0209 3.1043 29.9764 2.65367Z" fill="#1FBBB3"/>
<path d="M31.8797 3.54666C32.2153 2.88335 32.7948 1.41027 32.9747 1.4677C33.1547 1.52513 32.8527 3.57538 32.7307 4.23869C32.6087 4.90201 32.5477 5.10014 32.2153 5.16332C31.8828 5.22649 31.4253 5.16332 31.3643 5.07717C31.3033 4.99103 31.8797 3.54666 31.8797 3.54666Z" fill="#1FBBB3"/>
<path d="M33.9416 1.49658C34.2161 1.64016 34.2771 2.73707 34.0636 3.43197C33.8501 4.12688 33.4261 4.5576 33.2126 4.47146C32.9991 4.38531 33.1211 3.25968 33.2736 2.65093C33.408 2.2281 33.6356 1.83672 33.9416 1.50233" fill="#1FBBB3"/>
<path d="M18.572 7.87974C18.2059 8.16689 18.5415 11.5179 19.2704 11.9228C19.9994 12.3277 20.1214 12.1238 20.5759 11.5466C21.0304 10.9695 21.8814 8.16689 21.2744 7.90845C20.6674 7.65002 18.5689 7.87974 18.5689 7.87974" fill="#1FBBB3"/>
<path d="M24.7394 7.56116C24.2849 7.27401 22.2474 7.53245 21.9729 7.90861C21.6984 8.28478 21.9729 11.1132 22.5829 11.7794C23.1929 12.4456 23.7694 12.5604 24.1934 11.8943C24.6174 11.2281 25.1969 7.85118 24.7394 7.56116Z" fill="#1FBBB3"/>
<path d="M27.8993 7.10446C27.3228 6.81731 25.5598 7.45191 25.3463 7.76778C25.1328 8.08364 25.1023 9.77783 25.2853 10.3091C25.4683 10.8403 26.5298 12.5029 27.1154 12.5029C27.701 12.5029 27.9969 10.8001 28.0305 9.63138C28.064 8.46268 28.4758 7.39161 27.8993 7.10446Z" fill="#1FBBB3"/>
<path d="M30.0862 6.98399C29.7202 6.86913 28.7807 7.12756 28.6282 7.36015C28.4757 7.59274 28.5367 7.93445 28.5825 8.58628C28.6282 9.23811 28.369 9.44773 28.3995 9.62577C28.43 9.8038 29.7812 11.0271 30.1777 10.9696C30.5742 10.9122 30.8762 9.75786 30.7237 8.74709C30.5712 7.73632 30.4492 7.10172 30.0862 6.98399Z" fill="#1FBBB3"/>
<path d="M32.2732 6.81732C32.7276 6.98961 33.1547 7.36578 33.3072 8.52012C33.4597 9.67447 33.4597 10.8173 33.1242 10.8604C32.7886 10.9035 32.4165 10.2631 31.9681 9.97598C31.6174 9.75487 31.2087 9.74338 31.0867 9.55674C30.9646 9.37009 31.1477 8.58904 31.0104 8.14109C30.8731 7.69313 30.5407 7.13032 30.6291 7.01546C30.7176 6.9006 32.2701 6.81445 32.2701 6.81445" fill="#1FBBB3"/>
<path d="M33.8227 6.08812C34.2497 6.14555 34.8262 7.35732 34.9787 8.33938C35.1312 9.32143 34.4785 9.71195 34.082 9.50808C33.6854 9.3042 33.8684 8.64663 33.4902 7.74785C33.3225 7.34871 32.6545 6.72272 32.7002 6.55043C32.746 6.37814 33.3987 6.03069 33.8257 6.08812" fill="#1FBBB3"/>
<path d="M33.5024 3.55248L34.0362 3.46059L33.9599 3.04997L33.4262 3.14185L33.4597 3.32563L32.7185 3.45198L32.6911 3.27682L31.9926 3.37445L32.0231 3.56397L31.1965 3.69031L31.166 3.35147L30.1991 3.43188L30.2357 3.8224C29.829 3.87792 29.3837 3.93343 28.8997 3.98895L28.8387 3.58119L27.6553 3.742L27.7132 4.12104C27.1276 4.18229 26.5105 4.24068 25.8618 4.2962L25.8374 3.85112L24.4282 3.92577L24.4557 4.40532C23.5254 4.47136 22.5432 4.52879 21.5245 4.56899V4.05786H19.8774V4.63216C19.243 4.64556 18.5963 4.65322 17.9375 4.65514C17.2787 4.65705 16.632 4.64939 15.9976 4.63216V4.05786H14.3627V4.56899C13.4019 4.52879 12.4747 4.47423 11.5932 4.40819L11.6237 3.88557L10.2145 3.81091L10.1871 4.29333C9.54045 4.23302 8.93042 4.17272 8.32039 4.10955L8.3814 3.7018L7.19489 3.54099L7.13084 3.97172C6.65501 3.91429 6.21579 3.85399 5.79487 3.79656L5.83147 3.3888L4.86458 3.3084L4.84628 3.65872L4.01359 3.52664L4.05019 3.33425L3.34255 3.23374L3.3151 3.40603L2.57697 3.27394L2.61052 3.09878L2.07674 3.00977L2.00049 3.42039L2.52511 3.51228L2.54646 3.39742L3.28765 3.53238L3.25105 3.77358L3.95868 3.87122L3.99224 3.65872L4.83408 3.79081L4.80967 4.06073L5.77657 4.14114L5.79487 3.92865C6.20664 3.98608 6.65196 4.04351 7.12474 4.10381L7.06983 4.45413L8.25329 4.61493L8.32039 4.23302C8.90907 4.2962 9.54045 4.35937 10.1871 4.4168L10.1505 4.89921L11.5597 4.97387L11.5841 4.52017C12.4686 4.58622 13.3958 4.64078 14.3597 4.68098V5.30122H15.9915V4.72692C16.6259 4.74224 17.2726 4.7499 17.9314 4.7499C18.5902 4.7499 19.2369 4.74224 19.8713 4.72692V5.30122H21.5031V4.69821C22.5249 4.65801 23.5071 4.60058 24.4404 4.53453L24.4862 5.01407L25.8953 4.93941L25.8648 4.42254C26.5176 4.36799 27.1398 4.30768 27.7285 4.24451L27.7895 4.65514L28.9729 4.49433L28.9089 4.11529C29.3807 4.05978 29.8239 4.00426 30.2388 3.94875L30.2601 4.17559L31.227 4.09519L31.2026 3.80804L32.0444 3.6817L32.0811 3.90567L32.7795 3.80804L32.7429 3.56971L33.4872 3.44049L33.5024 3.55248Z" fill="#CBF3F0"/>
<path d="M33.9416 8.13833L34.7133 7.88851L34.4998 7.29411L33.7281 7.54393L33.8044 7.75642C33.5573 7.83108 33.1944 7.94307 32.6941 8.07516L32.5752 7.7478L31.5015 8.09526L31.5961 8.35943C31.2026 8.45707 30.7695 8.56044 30.3028 8.66668L30.2662 8.37953L29.1438 8.50588L29.1926 8.90502C28.6313 9.01988 28.0335 9.13474 27.3991 9.24673L27.3564 8.88492L25.9411 9.04285L25.996 9.47932C25.4266 9.56546 24.8369 9.64587 24.2269 9.72053L24.1598 9.17781L22.7445 9.33574L22.8116 9.87559C22.104 9.9445 21.375 9.99906 20.6308 10.0421V9.49942H19.0813V10.0996C18.6868 10.1091 18.2893 10.1139 17.8887 10.1139C17.5451 10.1139 17.2034 10.1139 16.8639 10.1139V9.46783H15.3357V10.0421C14.6098 10.0038 13.8981 9.95312 13.2006 9.88994L13.2769 9.28693L11.8616 9.129L11.7854 9.74063C11.1753 9.6698 10.5856 9.59131 10.0163 9.50516L10.0803 8.99404L8.66506 8.8361L8.62541 9.28693C7.99403 9.17781 7.40535 9.06582 6.83192 8.95096L6.89293 8.46855L5.77047 8.3422L5.72472 8.7155C5.2489 8.60925 4.80967 8.50588 4.4101 8.40538L4.53516 8.05505L3.44016 7.70473L3.3029 8.1211C2.83013 7.99762 2.46411 7.88851 2.19265 7.80811L2.30245 7.50373L1.53076 7.25391L1.30505 7.84544L2.07674 8.09526L2.13774 7.92584C2.40921 8.00624 2.78438 8.11536 3.248 8.2417L3.15344 8.54034L4.22405 8.88779L4.3552 8.52598C4.76392 8.62648 5.21229 8.73273 5.69727 8.84185L5.65152 9.2094L6.77397 9.33574L6.80447 9.07731C7.36875 9.19217 7.96658 9.30416 8.59796 9.41327L8.53391 9.93302L9.94917 10.0909L10.0041 9.63725C10.5755 9.72148 11.1652 9.79997 11.7732 9.87271L11.7305 10.2259L13.1457 10.3838L13.2006 10.022C13.8991 10.0852 14.6159 10.1398 15.3357 10.1771V10.6423H16.8608V10.2317C17.2004 10.2317 17.542 10.2317 17.8857 10.2317C18.2923 10.2317 18.6899 10.2269 19.0783 10.2173V10.6796H20.6216V10.1656C21.3699 10.1235 22.102 10.068 22.8177 9.99906L22.8696 10.4269L24.291 10.2632L24.2391 9.84113C24.8491 9.76647 25.4388 9.68607 26.0082 9.59992L26.0723 10.1283L27.4906 9.97609L27.4174 9.37307C28.0488 9.26108 28.6374 9.14622 29.2109 9.03136L29.2536 9.37307L30.376 9.24673L30.3211 8.79016C30.8 8.68104 31.2362 8.57767 31.6418 8.47717L31.8065 8.92225L32.8771 8.5748L32.7216 8.19289C33.2066 8.0608 33.5817 7.94881 33.8318 7.87415L33.9416 8.13833Z" fill="#CBF3F0"/>
</svg>
