<svg width="67" height="67" viewBox="0 0 67 67" fill="none" xmlns="http://www.w3.org/2000/svg">
    <circle cx="33.5" cy="33.5" r="33" transform="matrix(-1 0 0 1 67 0)" fill="white" stroke="#CBF3F0"/>
    <path d="M30.6104 46.0125L42.21 34.4625C42.3477 34.325 42.445 34.1761 42.5019 34.0157C42.5597 33.8553 42.5886 33.6834 42.5886 33.5C42.5886 33.3167 42.5597 33.1448 42.5019 32.9844C42.445 32.824 42.3477 32.675 42.21 32.5375L30.6104 20.9532C30.2891 20.6323 29.8875 20.4719 29.4057 20.4719C28.9238 20.4719 28.5107 20.6438 28.1665 20.9875C27.8223 21.3313 27.6502 21.7323 27.6502 22.1907C27.6502 22.649 27.8223 23.05 28.1665 23.3938L38.2861 33.5L28.1665 43.6063C27.8453 43.9271 27.6846 44.3222 27.6846 44.7915C27.6846 45.2618 27.8567 45.6688 28.2009 46.0125C28.5451 46.3563 28.9467 46.5282 29.4057 46.5282C29.8646 46.5282 30.2662 46.3563 30.6104 46.0125Z" fill="#1BA49D"/>
</svg>
