<svg width="20" height="33" viewBox="0 0 20 33" fill="none" xmlns="http://www.w3.org/2000/svg">
<g clip-path="url(#clip0_1550_2999)">
<path fill-rule="evenodd" clip-rule="evenodd" d="M19.5785 1.7164C19.8541 2.14488 20.0004 2.64357 20 3.1529C19.9994 3.79341 19.7669 4.41209 19.3453 4.89469C18.9237 5.3773 18.3416 5.69123 17.7064 5.77852V14.3197H16.9826V5.77852C16.4775 5.7091 16.003 5.4959 15.616 5.16437C15.2289 4.83284 14.9456 4.39701 14.7998 3.90895C14.654 3.42088 14.652 2.90121 14.794 2.41201C14.9359 1.92282 15.2158 1.48479 15.6003 1.15026C15.9847 0.815718 16.4575 0.598816 16.962 0.525461C17.4666 0.452106 17.9816 0.5254 18.4455 0.736587C18.9095 0.947773 19.3028 1.28792 19.5785 1.7164ZM18.9807 4.24501C19.1969 3.92174 19.3124 3.54166 19.3124 3.15286C19.3124 2.63149 19.105 2.13148 18.736 1.76281C18.3669 1.39415 17.8664 1.18704 17.3445 1.18704C16.9553 1.18704 16.5748 1.30233 16.2512 1.51834C15.9276 1.73435 15.6753 2.04137 15.5264 2.40057C15.3775 2.75978 15.3385 3.15504 15.4144 3.53637C15.4903 3.91771 15.6778 4.26798 15.953 4.54291C16.2282 4.81783 16.5788 5.00506 16.9606 5.08091C17.3423 5.15676 17.738 5.11783 18.0976 4.96905C18.4571 4.82026 18.7645 4.56829 18.9807 4.24501Z" fill="#1FBBB3"/>
<path d="M8.5592 31.6822H10.6764V19.1913H8.5592V31.6822ZM7.73133 32.5092H11.5042V18.3643H7.72681V32.5001L7.73133 32.5092Z" fill="#1FBBB3"/>
<path d="M7.75391 17.9393H11.477V16.6062H7.75391V17.9393Z" fill="#1FBBB3"/>
<path d="M7.75391 16.2177H11.477V14.8845H7.75391V16.2177Z" fill="#1FBBB3"/>
<path d="M0.827867 31.6822H2.94504V19.1913H0.827867V31.6822ZM0 32.5001H3.7729V18.3643H0V32.5001Z" fill="#1FBBB3"/>
<path d="M0.022583 17.9393H3.75025V16.6062H0.022583V17.9393Z" fill="#1FBBB3"/>
<path d="M0.022583 16.2177H3.75025V14.8845H0.022583V16.2177Z" fill="#1FBBB3"/>
<path d="M10.052 14.5863H9.22412V5.13228L10.6175 3.74038L8.54102 1.6661L9.12459 1.07861L11.7891 3.74038L10.052 5.47573V14.5863Z" fill="#1FBBB3"/>
<path d="M2.3705 14.5861H1.54263V4.96942L1.86835 4.89711C2.25806 4.7966 2.6031 4.56916 2.8489 4.25078C3.0947 3.93239 3.22722 3.54123 3.22551 3.13917C3.23088 2.99539 3.20631 2.85207 3.15336 2.71827C3.1004 2.58447 3.02022 2.46311 2.91789 2.36187C2.41017 1.97964 1.78925 1.77765 1.15358 1.78794L1.14453 0.951904C1.20334 0.951904 2.68717 0.951904 3.51956 1.77439C3.70057 1.95266 3.84297 2.16621 3.93791 2.40176C4.03285 2.63731 4.07832 2.88985 4.07147 3.14368C4.07995 3.68003 3.92061 4.20564 3.61568 4.64717C3.31075 5.0887 2.87544 5.42411 2.3705 5.60661V14.5861Z" fill="#1FBBB3"/>
<path d="M15.458 32.5001H19.2309V18.3643H15.458V32.5001ZM16.2859 31.6822H18.403V19.1913H16.2859V31.6822Z" fill="#1FBBB3"/>
<path d="M15.4807 17.9393H19.2084V16.6062H15.4807V17.9393Z" fill="#1FBBB3"/>
<path d="M15.4807 16.2177H19.2084V14.8845H15.4807V16.2177Z" fill="#1FBBB3"/>
</g>
<defs>
<clipPath id="clip0_1550_2999">
<rect width="20" height="32" fill="white" transform="translate(0 0.5)"/>
</clipPath>
</defs>
</svg>
