<svg width="28" height="29" viewBox="0 0 28 29" fill="none" xmlns="http://www.w3.org/2000/svg">
<g clip-path="url(#clip0_1550_3061)">
<path d="M15.1278 12.3471C15.1581 12.375 15.1982 12.3899 15.2395 12.3887C15.2807 12.3875 15.3199 12.3702 15.3484 12.3405L15.8838 11.7696C15.8978 11.7547 15.9087 11.7372 15.9158 11.7181C15.923 11.699 15.9263 11.6787 15.9255 11.6583C15.9248 11.638 15.92 11.6179 15.9115 11.5994C15.9029 11.5809 15.8908 11.5642 15.8757 11.5504L14.8182 10.5687C14.7879 10.5407 14.7477 10.5258 14.7063 10.5272C14.665 10.5286 14.6259 10.5461 14.5975 10.576L14.0607 11.1462C14.0325 11.1765 14.0174 11.2167 14.0188 11.258C14.0194 11.2785 14.0242 11.2987 14.0328 11.3174C14.0413 11.3361 14.0536 11.353 14.0688 11.3669L15.1278 12.3471Z" fill="#1FBBB3"/>
<path d="M12.773 14.7131C12.8018 14.7407 12.8403 14.7559 12.8804 14.7555C12.9016 14.7554 12.9226 14.751 12.9421 14.7426C12.9615 14.7342 12.9791 14.7219 12.9936 14.7065L13.529 14.1371C13.5581 14.1068 13.5739 14.0664 13.5731 14.0245C13.5724 14.0039 13.5676 13.9837 13.5589 13.965C13.5501 13.9462 13.5377 13.9295 13.5224 13.9156L12.4656 12.9332C12.4349 12.9059 12.3948 12.8914 12.3536 12.8929C12.3125 12.8944 12.2735 12.9118 12.2449 12.9413L11.7081 13.5107C11.6804 13.5414 11.6655 13.5813 11.6662 13.6225C11.6666 13.643 11.6711 13.6632 11.6796 13.682C11.6881 13.7007 11.7002 13.7175 11.7154 13.7314L12.773 14.7131Z" fill="#1FBBB3"/>
<path d="M17.1016 10.0023C17.1166 10.0162 17.1341 10.0272 17.1533 10.0344C17.1724 10.0417 17.1928 10.0451 17.2133 10.0445C17.2338 10.0438 17.254 10.0392 17.2727 10.0309C17.2914 10.0225 17.3082 10.0105 17.3223 9.99568L17.8584 9.42555C17.8724 9.41057 17.8834 9.39298 17.8906 9.37379C17.8978 9.3546 17.9011 9.33418 17.9003 9.31372C17.8999 9.29321 17.8953 9.27299 17.8868 9.25428C17.8784 9.23557 17.8662 9.21874 17.851 9.20481L16.795 8.22243C16.7645 8.19481 16.7244 8.18012 16.6832 8.18148C16.6419 8.18285 16.6029 8.20017 16.5743 8.22974L16.0382 8.79914C16.0101 8.82926 15.995 8.86917 15.9963 8.91024C15.9966 8.93077 16.0011 8.95103 16.0096 8.96976C16.0181 8.98849 16.0303 9.0053 16.0456 9.01915L17.1016 10.0023Z" fill="#1FBBB3"/>
<path d="M27.9007 5.78898L22.399 0.584706C22.3384 0.52876 22.258 0.498899 22.1753 0.501638C22.0926 0.504376 22.0144 0.539492 21.9577 0.599325L20.011 2.66495C19.9544 2.72562 19.9241 2.80593 19.9264 2.88862C19.9275 2.92983 19.9367 2.97042 19.9536 3.00806C19.9706 3.04569 19.9948 3.07963 20.025 3.1079L22.0842 5.0997L21.123 6.12301L17.9224 3.14299C17.8617 3.08722 17.7814 3.05748 17.6988 3.06021C17.6161 3.06295 17.538 3.09794 17.4811 3.1576L2.08567 19.5196C2.02928 19.5798 1.99911 19.6596 2.00173 19.7418C2.00435 19.8239 2.03954 19.9017 2.09964 19.9582L5.04651 22.6955L0.0845648 27.9744C0.0430448 28.0189 0.0154463 28.0744 0.00513251 28.1342C-0.00518123 28.1941 0.00223521 28.2556 0.026478 28.3113C0.0507208 28.367 0.0907431 28.4145 0.141668 28.448C0.192592 28.4815 0.252219 28.4995 0.313283 28.4999C0.343968 28.4992 0.374406 28.4943 0.403741 28.4853L3.3962 27.5987C3.44981 27.5835 3.49816 27.5539 3.53593 27.5131L6.65783 24.1954L9.66794 26.9927C9.7289 27.048 9.80923 27.0774 9.89172 27.0745C9.97421 27.0717 10.0523 27.0368 10.1092 26.9774L25.5069 10.6154C25.5626 10.5559 25.5929 10.4773 25.5915 10.3961C25.5905 10.3548 25.5812 10.3141 25.5641 10.2764C25.5471 10.2388 25.5226 10.2049 25.4922 10.1768L22.6336 7.5213L23.5955 6.49799L25.526 8.30925C25.5868 8.36484 25.6671 8.39446 25.7496 8.39172C25.8322 8.38899 25.9104 8.35412 25.9673 8.29463L27.9117 6.22827C27.9676 6.16895 27.998 6.09025 27.9963 6.00899C27.9965 5.96775 27.9881 5.92693 27.9716 5.88907C27.9552 5.85121 27.931 5.81714 27.9007 5.78898ZM23.8889 10.3595L9.91578 25.3072L3.77495 19.7155L17.7481 4.8044L23.8889 10.3595Z" fill="#1FBBB3"/>
<path d="M5.51061 19.7557L9.55547 23.5003C9.61381 23.5544 9.69047 23.5846 9.77022 23.5851C9.81234 23.5851 9.85404 23.5767 9.89282 23.5604C9.93161 23.5441 9.9667 23.5202 9.996 23.4901L17.7437 15.5324C17.7863 15.4885 17.815 15.4333 17.8264 15.3735C17.8378 15.3137 17.8314 15.2519 17.808 15.1956C17.7846 15.1394 17.7451 15.0911 17.6945 15.0568C17.6439 15.0225 17.5844 15.0036 17.5231 15.0024C17.5231 15.0024 17.3606 15.0024 17.1017 15.0024C16.1015 15.0024 14.2975 15.0514 13.4555 15.3796C12.7825 15.6435 10.8697 15.7356 9.30322 15.7356H9.06641C8.98009 15.7393 8.89794 15.7735 8.83475 15.8321L5.49737 19.3135C5.46858 19.3432 5.44604 19.3783 5.43108 19.4167C5.41613 19.4552 5.40906 19.4962 5.41029 19.5374C5.41153 19.5786 5.42104 19.6191 5.43827 19.6566C5.45549 19.6941 5.48009 19.7278 5.51061 19.7557Z" fill="#1FBBB3"/>
</g>
<defs>
<clipPath id="clip0_1550_3061">
<rect width="28" height="28" fill="white" transform="translate(0 0.5)"/>
</clipPath>
</defs>
</svg>
