<svg width="32" height="29" viewBox="0 0 32 29" fill="none" xmlns="http://www.w3.org/2000/svg">
<g clip-path="url(#clip0_1550_3053)">
<path d="M22.6274 29H9.03387C8.92789 28.7451 8.66985 28.7334 8.46479 28.6539C5.74379 27.5968 3.93286 25.6931 3.05735 22.8562C2.15111 19.9235 1.22184 16.9977 0.269528 14.079C-0.571425 11.4948 0.589782 10.1219 3.22554 10.6131C4.86828 10.9194 6.37969 11.5111 7.73213 13.0523C7.63997 11.5228 7.28746 10.3862 6.99716 9.24492C6.39582 6.87581 6.30596 4.5675 7.59849 2.35742C8.32655 1.13427 9.58453 0.717984 10.6467 0H12.7202C14.333 0.589355 15.9458 1.34476 17.5586 0H20.5538C24.36 1.49677 25.8806 4.12315 24.747 9.24024C24.542 10.1757 24.3646 11.0972 24.1273 12.2548C25.8483 10.9662 27.5487 10.4353 29.4587 10.5055C31.5852 10.5827 32.44 11.752 31.7834 13.796C31.0692 16.0131 30.4125 18.2419 29.6752 20.4567C28.961 22.5779 28.4841 24.8067 26.8252 26.4952C25.6248 27.7184 24.148 28.3802 22.6274 29ZM15.9458 27.8657C17.5194 27.8657 19.0908 27.8657 20.6644 27.8657C23.9245 27.8377 26.5418 26.0275 27.6063 22.9147C28.6984 19.72 29.6799 16.4856 30.6867 13.2605C31.0208 12.1917 30.6867 11.7544 29.5577 11.7029C26.2031 11.5439 24.1526 13.1295 23.337 16.4622C22.996 17.8467 22.8762 19.299 22.0145 20.5292C20.3234 22.9404 17.971 23.6444 15.1786 23.4853C12.4553 23.3333 9.96238 21.5161 9.11682 18.8781C8.83112 17.9917 8.56847 17.0983 8.2943 16.2073C7.53168 13.7165 5.04107 11.8058 2.43758 11.7123C1.3501 11.6725 0.907731 12.18 1.2349 13.2254C2.26708 16.523 3.2647 19.8346 4.4213 23.0877C5.50418 26.1281 8.04316 27.8283 11.2342 27.8634C12.8055 27.8774 14.3791 27.8634 15.9504 27.8657H15.9458ZM12.4737 1.3775C10.0684 1.34476 8.88181 2.13524 8.15836 3.92436C7.82279 4.71741 7.69576 5.58531 7.78973 6.44314C8.28278 10.4961 8.71132 14.5655 10.3518 18.3706C10.5038 18.7237 10.5568 19.2756 10.96 19.2686C11.4208 19.2686 11.5107 18.6863 11.6512 18.2957C12.082 17.0048 12.4806 15.6998 13.1787 14.5257C13.8768 13.3517 14.8376 12.3952 16.2845 12.4653C17.6922 12.5261 18.5608 13.4686 19.0654 14.7573C19.2359 15.1899 19.3672 15.6366 19.5078 16.081C19.7543 16.8574 19.9686 17.6456 20.2451 18.4197C20.3672 18.7635 20.4754 19.2733 20.9362 19.2312C21.2864 19.2008 21.374 18.7401 21.5007 18.4127C22.5375 15.7138 22.9522 12.8535 23.5743 10.0471C23.9153 8.48952 24.1019 6.91089 23.8485 5.29718C23.4407 2.80645 21.4477 0.877016 19.0378 1.28629C16.6278 1.69556 14.3469 2.20306 12.4737 1.3775ZM15.8421 22.2528C17.8374 22.2528 18.9364 21.9044 19.8695 21.0835C20.2082 20.7865 20.3672 20.5877 19.9709 20.1714C19.2336 19.3973 18.911 18.394 18.6461 17.3649C18.4157 16.4669 18.2383 15.5407 17.7475 14.7339C16.9596 13.4382 15.568 13.3306 14.6187 14.5187C13.9348 15.4155 13.4364 16.4432 13.1534 17.5403C12.8861 18.4758 12.6143 19.4113 11.9231 20.1363C11.5245 20.5479 11.6927 20.7724 12.0383 21.0718C13.1088 21.9486 14.4716 22.3718 15.8421 22.2528Z" fill="#1FBBB3"/>
</g>
<defs>
<clipPath id="clip0_1550_3053">
<rect width="32" height="29" fill="white"/>
</clipPath>
</defs>
</svg>
