<svg width="25" height="29" viewBox="0 0 25 29" fill="none" xmlns="http://www.w3.org/2000/svg">
<g clip-path="url(#clip0_1550_2991)">
<g clip-path="url(#clip1_1550_2991)">
<path fill-rule="evenodd" clip-rule="evenodd" d="M12.422 26.6237C12.844 26.6237 13.2887 26.9157 13.804 27.2534C14.2896 27.5723 14.8399 27.9336 15.2324 27.9336L15.268 27.9324C16.8632 27.831 19.3167 25.3251 21.6716 21.3938C22.851 19.4254 26.3186 12.6654 21.4413 8.30865C20.613 7.56851 19.735 7.20873 18.7568 7.20873C17.2157 7.20873 15.7219 8.10758 14.5217 8.82923C13.6624 9.34623 12.984 9.75463 12.422 9.75463C11.8603 9.75463 11.1816 9.34652 10.3226 8.82923C9.12208 8.10758 7.62829 7.20873 6.08688 7.20873C5.10904 7.20873 4.23069 7.56851 3.4021 8.30865C-1.47485 12.6654 1.99276 19.4254 3.17207 21.3938C5.52702 25.3251 7.98054 27.831 9.57569 27.9324L9.61132 27.9336C10.0038 27.9336 10.5545 27.5723 11.04 27.2534C11.5553 26.9157 12 26.6237 12.422 26.6237ZM15.2321 28.7764C14.574 28.7764 13.9069 28.3384 13.3182 27.9521C13.0237 27.7588 12.5786 27.4664 12.422 27.4664C12.2654 27.4664 11.8204 27.7588 11.5259 27.9518C10.9092 28.3566 10.197 28.8187 9.51887 28.7734C7.58253 28.6502 4.99571 26.1147 2.4221 21.8177C1.16079 19.7121 -2.539 12.4706 2.81459 7.68814C3.79705 6.81077 4.89836 6.36597 6.08688 6.36597C7.8749 6.36597 9.48509 7.33463 10.779 8.11295C11.4319 8.50585 12.1072 8.91157 12.422 8.91157C12.7371 8.91157 13.4125 8.50585 14.0651 8.11266C15.3589 7.33463 16.9691 6.36597 18.7568 6.36597C19.9454 6.36597 21.0464 6.81077 22.0288 7.68814C27.3827 12.4706 23.6829 19.7121 22.4219 21.8177C19.848 26.1147 17.2612 28.6502 15.3248 28.7734C15.2941 28.7755 15.2631 28.7764 15.2321 28.7764Z" fill="#1FBBB3"/>
<path fill-rule="evenodd" clip-rule="evenodd" d="M19.0725 0.0244626C18.9496 0.0304291 16.0413 0.197789 14.1016 2.082C13.0641 3.08974 12.5347 4.36418 12.2635 5.35253C12.0503 4.77766 11.7107 4.13865 11.1637 3.60704C9.83453 2.31559 7.84628 2.20163 7.76213 2.19716L7.28149 2.17329L7.30668 2.64017C7.31098 2.72161 7.42891 4.65296 8.75809 5.94411C9.86124 7.01599 12.2991 7.48704 12.2991 7.48704C12.2991 7.48704 15.7332 6.9241 17.4101 5.29585C19.3492 3.41164 19.5221 0.586505 19.5282 0.467176L19.5534 0L19.0725 0.0244626Z" fill="#1FBBB3"/>
</g>
</g>
<defs>
<clipPath id="clip0_1550_2991">
<rect width="25" height="29" fill="white"/>
</clipPath>
<clipPath id="clip1_1550_2991">
<rect width="24.8437" height="28.7764" fill="white"/>
</clipPath>
</defs>
</svg>
