<svg width="20" height="29" viewBox="0 0 20 29" fill="none" xmlns="http://www.w3.org/2000/svg">
<g clip-path="url(#clip0_1550_2956)">
<path d="M17.7371 11.6106C17.6351 11.9139 17.541 12.2056 17.4508 12.4856H2.54885C2.46258 12.2056 2.35277 11.9139 2.26258 11.6106C1.19983 8.39833 -0.25507 4 2.4116 2.33944C3.28936 1.74433 4.32126 1.41224 5.38415 1.38278C6.33855 1.42882 7.27309 1.66977 8.12924 2.09056C8.71237 2.38528 9.34766 2.5649 9.99983 2.61944C10.6507 2.5645 11.2846 2.38489 11.8665 2.09056C12.7227 1.66977 13.6572 1.42882 14.6116 1.38278C15.6745 1.41224 16.7064 1.74433 17.5841 2.33944C20.2508 4.00389 18.7959 8.40222 17.7332 11.6106M18.0626 1.59278C17.0435 0.907243 15.8466 0.527813 14.6155 0.5C13.5396 0.543545 12.4846 0.808407 11.5175 1.27778C11.0438 1.52123 10.5296 1.67799 9.99983 1.74056C9.47 1.67808 8.95588 1.52131 8.48218 1.27778C7.51498 0.808514 6.46 0.543658 5.38415 0.5C4.15304 0.527813 2.95616 0.907243 1.93709 1.59278C-1.31781 3.61111 0.262577 8.39833 1.41552 11.8828L1.61552 12.4856H1.52532V18.2878H8.54885V19.5556H3.60768V21.0256H8.54885V22.0522H4.8116V23.5222H8.54885V24.5333H6.27434V26.0033H8.54885V27.03H7.8665V28.5H12.1292V27.03H11.4508V26.0033H13.7253V24.5333H11.4508V23.5067H15.192V22.0367H11.4508V21.0061H16.392V19.5556H11.4508V18.2878H18.4743V12.4856H18.3841L18.5841 11.8828C19.7371 8.38278 21.3292 3.61889 18.0626 1.59278Z" fill="#1FBBB3"/>
</g>
<defs>
<clipPath id="clip0_1550_2956">
<rect width="20" height="28" fill="white" transform="translate(0 0.5)"/>
</clipPath>
</defs>
</svg>
