<svg width="20" height="31" viewBox="0 0 20 31" fill="none" xmlns="http://www.w3.org/2000/svg">
<g clip-path="url(#clip0_1550_2972)">
<path d="M2.27889 11.8054H17.7212V11.7616C18.7827 8.35557 20.2486 3.69027 17.5737 1.92821C16.6987 1.29692 15.6651 0.944381 14.5999 0.913822C13.6439 0.962933 12.7084 1.2191 11.8534 1.66587C11.2729 1.97855 10.6389 2.17017 9.9874 2.2299C9.33587 2.17017 8.70192 1.97855 8.12135 1.66587C7.26643 1.2191 6.33091 0.962933 5.37493 0.913822C4.31183 0.953348 3.28284 1.31343 2.41368 1.95007C-0.252705 3.69901 1.20054 8.37743 2.26625 11.7835L2.27889 11.8054ZM18.0455 12.741H1.95454C1.86044 12.7401 1.76904 12.7083 1.69339 12.6502C1.61774 12.592 1.56172 12.5106 1.53331 12.4175L1.41958 12.0546C0.265408 8.35557 -1.3142 3.30987 1.9419 1.1237C2.96 0.411071 4.15557 0.020696 5.38335 0C6.45975 0.047224 7.51457 0.328769 8.47939 0.826375C8.95363 1.08277 9.46894 1.24723 10 1.31171C10.53 1.24554 11.0439 1.07959 11.5165 0.822003C12.4816 0.325911 13.5364 0.0458601 14.6125 0C15.8466 0.0293437 17.0456 0.432043 18.0624 1.15867C21.3185 3.31424 19.7473 8.37743 18.5847 12.0896L18.471 12.4568C18.4426 12.55 18.3865 12.6314 18.3109 12.6895C18.2352 12.7476 18.1438 12.7794 18.0497 12.7804L18.0455 12.741Z" fill="#1FBBB3"/>
<path d="M3.08764 14.8397C3.08764 14.9491 3.11713 15.054 3.12555 15.1458C3.19376 16.5504 3.15432 17.9583 3.00761 19.3564C2.84754 21.4639 2.68326 23.6457 3.1087 25.2897C3.55108 26.7604 4.31187 28.1064 5.3328 29.2248C5.10955 27.2966 4.88629 23.755 5.80036 21.1141C6.87871 18.001 8.81637 16.0771 10.0127 16.0771C11.209 16.0771 13.1298 18.001 14.225 21.1141C15.139 23.7375 14.9158 27.2922 14.6967 29.2204C15.7173 28.1018 16.478 26.7558 16.9208 25.2853C17.3421 23.6413 17.182 21.4595 17.0261 19.3476C16.8795 17.9496 16.8401 16.5416 16.9082 15.1371C16.9082 15.0409 16.9082 14.9403 16.9461 14.831H3.08764V14.8397ZM5.97307 31.0175C5.86923 31.0184 5.76872 30.9795 5.69084 30.9082C5.58132 30.8163 3.04131 28.5864 2.25361 25.5564C1.78604 23.755 1.95453 21.4901 2.12303 19.3039C2.26436 17.9581 2.30379 16.6029 2.24097 15.2507C2.21338 14.9913 2.16834 14.7341 2.10618 14.4812C2.09072 14.4126 2.09026 14.3412 2.10484 14.2724C2.11942 14.2035 2.14866 14.1389 2.19042 14.0833C2.23051 14.0296 2.28147 13.9858 2.3397 13.9548C2.39793 13.9238 2.46201 13.9065 2.52741 13.9041H17.4558C17.523 13.9037 17.5895 13.9193 17.6501 13.9496C17.7107 13.9799 17.7638 14.0241 17.8054 14.079C17.8472 14.1345 17.8764 14.1991 17.891 14.268C17.9056 14.3368 17.9051 14.4082 17.8897 14.4768C17.8312 14.7243 17.789 14.9755 17.7633 15.2289C17.7008 16.5811 17.7403 17.9362 17.8812 19.2821C18.0455 21.4682 18.2182 23.7375 17.7507 25.5389C16.963 28.5689 14.4229 30.7857 14.3134 30.8907C14.2433 30.9518 14.1566 30.9889 14.0653 30.9967C13.974 31.0046 13.8826 30.9828 13.8037 30.9344C13.7245 30.885 13.6618 30.8116 13.6241 30.724C13.5864 30.6364 13.5756 30.5389 13.5931 30.4447C13.5931 30.3878 14.5662 24.9268 13.3572 21.4376C12.3505 18.5344 10.6361 17.0172 9.98739 17.0172C9.3387 17.0172 7.63693 18.5344 6.61755 21.4376C5.40862 24.9355 6.37324 30.3878 6.38166 30.4447C6.39916 30.5389 6.38833 30.6364 6.35066 30.724C6.31299 30.8116 6.25028 30.885 6.17105 30.9344C6.10235 30.9772 6.02373 30.9999 5.94358 31L5.97307 31.0175Z" fill="#1FBBB3"/>
</g>
<defs>
<clipPath id="clip0_1550_2972">
<rect width="20" height="31" fill="white"/>
</clipPath>
</defs>
</svg>
