<svg width="26" height="29" viewBox="0 0 26 29" fill="none" xmlns="http://www.w3.org/2000/svg">
<g clip-path="url(#clip0_1550_3055)">
<path fill-rule="evenodd" clip-rule="evenodd" d="M19.1749 15.812C18.938 12.2808 16.0125 9.47356 12.4686 9.47356C8.92553 9.47356 5.99969 12.2808 5.76285 15.812H5.44065C5.6775 12.1018 8.74742 9.14961 12.4686 9.14961C16.19 9.14961 19.2602 12.1018 19.4973 15.812H19.1749ZM21.8913 24.9089C21.8913 26.7054 20.4464 28.1672 18.6702 28.1672H5.55317C3.77725 28.1672 2.33204 26.7054 2.33204 24.9089V16.6781H21.8913V24.9089ZM4.46144 4.51138C6.73877 2.20794 9.63277 0.832766 12.2027 0.832766C13.4549 0.832766 14.5601 1.16365 15.4274 1.79489L1.77519 15.6038C-0.193387 12.8504 0.926612 8.08672 4.46144 4.51138ZM2.70061 15.8453L5.15029 13.3676C4.84758 14.1423 4.66041 14.9751 4.6143 15.8453H2.70061ZM17.9308 15.812C17.6959 12.9712 15.3297 10.7227 12.4686 10.7227C9.60779 10.7227 7.24155 12.9712 7.00662 15.812H6.587C6.82192 12.7399 9.37836 10.3063 12.4686 10.3063C15.5594 10.3063 18.1158 12.7399 18.3507 15.812H17.9308ZM16.6947 15.812C16.4642 13.6602 14.6485 11.9719 12.4686 11.9719C10.289 11.9719 8.47297 13.6602 8.24244 15.812H7.82776C8.05939 13.4292 10.0601 11.5555 12.4686 11.5555C14.8776 11.5555 16.8783 13.4292 17.1097 15.812H16.6947ZM14.5203 15.812H10.4171C10.6279 14.8621 11.4735 14.1462 12.4686 14.1462C13.4637 14.1462 14.3093 14.8624 14.5203 15.812ZM12.4686 13.3134C11.0217 13.3134 9.80512 14.4021 9.58254 15.812H9.07098C9.2963 14.1193 10.7412 12.8046 12.4686 12.8046C14.1959 12.8046 15.6411 14.1193 15.8665 15.812H15.3546C15.1323 14.4021 13.9157 13.3134 12.4686 13.3134ZM25.8334 12.4432C24.8034 12.6583 24.3904 11.981 23.7433 10.7663C23.165 9.68008 22.5091 8.44925 21.012 8.31879C19.1096 8.14946 18.1537 9.35697 17.7681 10.4049C16.3673 9.10964 14.5055 8.31684 12.4686 8.31684C11.4556 8.31684 10.4868 8.51476 9.59572 8.87119L16.6451 1.74076L16.316 1.44735C15.2531 0.500492 13.8306 0 12.2027 0C9.41925 0 6.30762 1.46622 3.87934 3.92261C-0.115996 7.96375 -1.19071 13.4892 1.43214 16.5021L1.50871 16.5904V24.9089C1.50871 27.1646 3.32305 29 5.55317 29H18.6702C20.9003 29 22.7146 27.1646 22.7146 24.9089V15.8453H20.3234C20.2274 14.036 19.5273 12.3849 18.4262 11.0925C18.5538 10.5376 19.0783 8.98611 20.9412 9.14822C21.9953 9.24011 22.4923 10.1736 23.0187 11.1613C23.5605 12.1789 24.1664 13.3173 25.4668 13.3171C25.6325 13.3171 25.8104 13.2985 26 13.2588L25.8334 12.4432Z" fill="#1FBBB3"/>
</g>
<defs>
<clipPath id="clip0_1550_3055">
<rect width="26" height="29" fill="white"/>
</clipPath>
</defs>
</svg>
