<svg width="91" height="91" viewBox="0 0 91 91" fill="none" xmlns="http://www.w3.org/2000/svg">
    <circle cx="45.5" cy="45.5" r="45.5" fill="#1FBBB3"/>
    <g clip-path="url(#clip0_1512_1114)">
        <path d="M64.8376 51.4364L46.9876 33.7317C46.7751 33.5216 46.5449 33.3731 46.297 33.2862C46.0491 33.1979 45.7834 33.1538 45.5001 33.1538C45.2168 33.1538 44.9511 33.1979 44.7032 33.2862C44.4553 33.3731 44.2251 33.5216 44.0126 33.7317L26.1095 51.4364C25.6136 51.9268 25.3657 52.5397 25.3657 53.2752C25.3657 54.0107 25.6313 54.6411 26.1626 55.1665C26.6938 55.6918 27.3136 55.9545 28.022 55.9545C28.7303 55.9545 29.3501 55.6918 29.8813 55.1665L45.5001 39.7208L61.1188 55.1665C61.6147 55.6568 62.2253 55.902 62.9506 55.902C63.6773 55.902 64.3063 55.6393 64.8376 55.114C65.3688 54.5886 65.6345 53.9757 65.6345 53.2752C65.6345 52.5747 65.3688 51.9618 64.8376 51.4364Z" fill="white"/>
    </g>
    <defs>
        <clipPath id="clip0_1512_1114">
            <rect width="29" height="51" fill="white" transform="matrix(-4.37114e-08 1 1 4.37114e-08 20 31)"/>
        </clipPath>
    </defs>
</svg>
