<?xml version="1.0" standalone="no"?>
<!DOCTYPE svg PUBLIC "-//W3C//DTD SVG 20010904//EN"
 "http://www.w3.org/TR/2001/REC-SVG-20010904/DTD/svg10.dtd">
<svg version="1.0" xmlns="http://www.w3.org/2000/svg"
 width="1096.000000pt" height="1096.000000pt" viewBox="0 0 1096.000000 1096.000000"
 preserveAspectRatio="xMidYMid meet">
<metadata>
Created by potrace 1.14, written by Peter Selinger 2001-2017
</metadata>
<g transform="translate(0.000000,1096.000000) scale(0.100000,-0.100000)"
fill="#000000" stroke="none">
<path d="M6535 9425 c-98 -16 -173 -30 -185 -36 -3 -1 -9 -3 -15 -3 -13 -2
-156 -45 -175 -53 -8 -4 -17 -7 -20 -8 -22 -5 -60 -19 -85 -30 -16 -8 -59 -26
-95 -40 -36 -15 -157 -72 -270 -128 -198 -99 -206 -102 -270 -101 -98 1 -185
35 -368 143 -62 36 -127 74 -145 85 -187 110 -256 131 -432 131 -127 0 -148
-3 -230 -29 -214 -70 -380 -221 -458 -417 -23 -57 -32 -88 -36 -120 -1 -3 -7
-6 -13 -7 -101 -8 -135 -14 -201 -31 -197 -52 -340 -155 -458 -329 -27 -41
-49 -79 -49 -85 0 -6 -6 -18 -13 -26 -8 -9 -19 -32 -26 -51 -7 -19 -17 -44
-21 -55 -25 -61 -60 -188 -74 -272 -4 -18 -9 -48 -12 -65 -33 -194 -37 -608
-8 -868 3 -25 6 -64 7 -87 1 -24 4 -43 7 -43 3 0 5 -12 6 -27 0 -28 13 -129
20 -168 2 -10 6 -37 9 -60 3 -22 8 -53 12 -70 3 -16 8 -40 9 -52 6 -33 21
-113 29 -149 3 -12 7 -39 10 -60 4 -21 10 -52 15 -69 9 -32 23 -99 25 -126 1
-9 5 -21 8 -26 4 -6 9 -26 12 -45 3 -19 21 -95 41 -169 19 -74 36 -141 38
-149 2 -8 11 -42 20 -75 9 -33 19 -68 21 -78 31 -135 181 -573 207 -604 6 -7
8 -13 5 -13 -10 0 120 -247 170 -324 195 -302 433 -480 568 -424 83 34 179
167 275 382 31 69 89 223 107 281 8 28 16 51 18 53 1 2 24 -12 50 -29 38 -25
58 -32 95 -32 54 1 121 32 156 71 30 34 81 130 87 162 7 33 27 84 31 79 11
-12 136 -263 136 -273 0 -7 5 -17 12 -24 6 -6 13 -17 14 -24 7 -48 255 -542
283 -568 4 -3 19 -22 34 -43 39 -52 73 -83 135 -124 48 -31 62 -35 135 -38 44
-2 85 -1 91 3 6 4 13 7 16 8 38 7 86 44 133 103 16 20 72 133 68 139 -1 1 5
18 13 37 8 19 12 35 9 35 -3 0 -1 6 4 13 5 6 20 48 33 92 13 44 26 83 29 87 3
4 33 9 66 12 95 9 138 17 167 32 15 8 29 14 30 13 8 -3 69 29 113 60 44 30
135 114 135 125 0 2 16 28 35 57 19 30 35 57 35 60 0 4 16 41 35 82 19 41 35
82 35 91 0 9 3 16 8 16 4 0 13 19 20 43 11 35 45 132 69 197 3 8 7 20 9 25 13
47 109 321 113 325 3 3 8 12 10 20 2 8 4 20 6 25 2 11 2 10 53 135 31 76 114
244 160 325 68 118 84 147 116 205 53 96 144 284 152 314 3 14 10 26 15 26 5
0 9 8 9 18 0 9 6 29 14 44 16 31 36 89 35 102 0 5 3 12 8 15 8 6 71 179 79
216 2 12 12 45 22 75 11 30 20 58 21 63 0 4 1 8 2 10 0 1 2 9 4 17 1 8 11 44
20 80 18 68 23 90 31 128 2 12 6 33 9 47 3 14 7 37 10 53 3 15 8 38 10 52 3
14 8 43 11 65 3 22 7 54 9 70 27 186 27 556 1 690 -3 17 -11 59 -18 95 -6 36
-15 69 -20 74 -4 6 -8 20 -8 32 0 22 -31 109 -57 157 -8 15 -11 27 -7 27 3 0
2 6 -3 13 -6 6 -25 39 -43 72 -18 33 -36 62 -39 65 -3 3 -19 23 -36 45 -119
161 -298 261 -555 310 -66 13 -353 12 -435 0z"/>
<path d="M6459 4608 c0 -2 -2 -84 -4 -183 -3 -99 -7 -218 -9 -265 -12 -194
-20 -292 -31 -385 -3 -22 -7 -60 -10 -85 -3 -25 -7 -61 -10 -80 -2 -19 -6 -53
-9 -75 -3 -22 -7 -50 -10 -61 -2 -12 -7 -39 -10 -60 -4 -22 -11 -64 -16 -94
-6 -30 -13 -68 -15 -85 -3 -16 -10 -43 -15 -60 -5 -16 -12 -46 -15 -66 -3 -19
-19 -82 -36 -140 -16 -57 -32 -113 -34 -125 -6 -25 -77 -223 -100 -279 -9 -22
-37 -82 -62 -132 l-45 -93 -135 0 -135 0 4 -30 c3 -17 1 -33 -3 -36 -4 -2 -4
-18 1 -34 5 -17 6 -30 2 -30 -4 0 -7 -18 -7 -40 0 -22 3 -40 7 -40 4 0 3 -13
-2 -30 -5 -18 -5 -32 1 -36 5 -3 7 -10 4 -15 -8 -13 -10 -107 -3 -115 4 -3 3
-17 -2 -30 -6 -14 -6 -26 1 -29 5 -4 7 -11 3 -17 -5 -8 -7 -245 -2 -291 1 -11
24 -14 95 -14 l93 0 2 300 3 300 995 -1 c547 0 1014 -1 1037 -1 l43 -1 2 -297
3 -297 83 -1 c46 0 87 2 93 6 10 6 15 766 5 776 -3 3 -67 6 -143 7 l-138 1 -3
1133 -2 1132 -735 0 c-404 0 -735 -1 -736 -2z m1269 -1228 l0 -1040 -739 0
c-406 0 -739 2 -739 4 0 3 13 33 29 68 63 135 144 367 187 531 1 4 2 8 3 10 2
1 4 13 6 27 2 14 10 52 18 85 9 33 18 76 21 96 3 20 8 42 10 50 3 8 7 30 10
49 3 19 8 46 10 60 19 104 36 212 42 270 2 25 6 56 9 70 3 14 7 54 11 90 3 36
7 81 9 100 8 80 18 208 20 252 1 27 4 51 8 54 3 4 2 14 -3 24 -5 10 -7 20 -3
23 5 6 8 56 12 190 l1 27 539 0 539 0 0 -1040z"/>
<path d="M955 4279 c-22 -4 -53 -9 -70 -12 -16 -3 -41 -9 -55 -12 -14 -3 -32
-8 -40 -10 -8 -2 -16 -4 -17 -5 -2 -2 -6 -3 -10 -4 -34 -8 -66 -20 -135 -50
-20 -9 -40 -16 -46 -16 -5 0 -15 -7 -22 -15 -7 -8 -16 -12 -21 -9 -5 3 -9 0
-9 -6 0 -6 -10 -14 -22 -19 -37 -14 -139 -93 -201 -156 -60 -61 -163 -195
-150 -195 5 0 3 -4 -2 -8 -20 -14 -112 -222 -99 -222 4 0 1 -7 -6 -15 -7 -8
-9 -15 -5 -15 4 0 2 -7 -5 -15 -7 -8 -10 -15 -7 -15 3 0 0 -19 -5 -42 -18 -77
-20 -91 -23 -245 -1 -83 1 -173 7 -200 5 -26 11 -61 13 -77 3 -16 10 -45 17
-65 7 -20 13 -38 13 -41 38 -153 178 -359 314 -462 31 -24 58 -45 61 -49 19
-21 205 -119 227 -119 4 0 21 -7 36 -15 16 -8 38 -16 50 -18 12 -2 29 -7 37
-10 19 -7 103 -25 160 -33 61 -10 259 -10 342 0 53 6 148 26 233 49 29 8 131
50 166 68 30 15 40 26 39 42 -1 12 -1 25 0 30 6 19 6 33 -2 48 -7 15 -13 14
-60 -10 -82 -41 -160 -71 -169 -65 -5 3 -9 1 -9 -4 0 -5 -6 -9 -12 -10 -7 0
-24 -3 -38 -7 -112 -28 -176 -34 -320 -30 -85 2 -166 6 -180 9 -14 3 -37 8
-53 11 -241 49 -480 205 -600 391 -48 74 -102 187 -114 239 -31 134 -36 175
-37 285 0 126 7 211 24 269 5 17 8 32 8 34 -1 1 7 27 17 57 28 85 72 176 117
244 39 58 172 197 214 223 10 7 36 24 57 38 84 55 260 125 359 141 58 10 342
10 398 0 100 -17 330 -97 338 -118 2 -4 12 -8 21 -8 15 0 17 8 15 53 -1 28 -2
55 -3 59 -1 8 -135 64 -211 88 -50 16 -130 35 -199 46 -49 8 -286 10 -326 3z"/>
<path d="M8688 3125 c-2 -2 -15 -6 -28 -8 -86 -16 -101 -20 -106 -28 -3 -5
-10 -7 -15 -4 -5 4 -9 3 -9 -2 0 -4 -12 -14 -28 -20 -41 -19 -128 -110 -151
-158 -31 -69 -42 -117 -42 -195 -1 -188 75 -318 226 -389 72 -34 115 -43 220
-44 91 -1 151 8 210 30 22 8 48 15 58 16 15 1 18 8 15 39 -2 21 0 38 5 38 4 0
5 5 1 11 -3 6 -6 28 -6 50 1 44 1 44 -39 24 -89 -46 -255 -68 -332 -43 -53 16
-57 18 -60 15 -1 -1 -17 8 -35 21 -40 29 -77 78 -86 113 l-6 27 297 0 297 -1
9 29 c8 31 11 124 3 164 -11 60 -53 160 -68 160 -4 0 -8 5 -8 10 0 19 -64 70
-126 101 -38 19 -83 32 -115 35 -30 2 -59 6 -66 8 -6 3 -13 3 -15 1z m90 -169
c73 -14 152 -97 152 -160 l0 -23 -224 0 c-222 0 -224 0 -222 21 10 74 87 147
170 160 16 3 30 7 32 9 4 4 49 1 92 -7z"/>
<path d="M9299 3088 c-1 -17 -1 -769 0 -786 1 -9 23 -12 83 -10 l83 3 1 145
c1 80 2 152 3 160 1 13 28 16 199 15 l197 0 3 -163 2 -162 84 1 84 1 0 404 0
403 -84 0 -84 0 -2 -162 -3 -162 -197 -1 c-132 0 -198 3 -199 10 -1 6 -2 79
-3 161 l-1 150 -82 3 c-63 2 -83 0 -84 -10z"/>
<path d="M10192 3019 c0 -71 8 -103 21 -82 3 5 39 6 81 3 41 -3 85 -2 98 1 13
3 36 3 53 -1 l29 -6 0 -322 0 -323 86 2 85 1 -1 324 -1 324 141 0 141 0 0 77
0 78 -367 2 -366 2 0 -80z"/>
<path d="M2147 3084 c-2 -2 -21 -5 -41 -6 -31 -1 -36 -4 -37 -27 -1 -14 -1
-186 -2 -381 l-1 -355 53 -3 c42 -2 57 1 70 15 15 18 94 112 136 162 11 13 27
32 35 41 8 9 33 38 55 65 22 28 45 56 52 63 8 8 26 30 41 50 15 20 38 48 52
62 14 15 36 41 49 58 13 18 27 32 30 32 4 0 7 -123 7 -272 l0 -273 64 0 64 0
0 380 0 380 -57 1 c-36 1 -60 -3 -65 -11 -6 -11 -60 -76 -117 -141 -11 -13
-30 -36 -42 -52 -12 -16 -33 -40 -45 -54 -13 -13 -41 -47 -63 -73 -22 -27 -56
-68 -75 -90 -19 -23 -50 -61 -69 -83 -19 -23 -37 -42 -40 -42 -4 0 -6 121 -6
269 0 267 0 270 -21 280 -12 5 -24 8 -27 5z"/>
<path d="M3088 3085 c-3 -3 -19 -7 -34 -8 -28 -2 -29 -5 -30 -55 -1 -61 11
-73 62 -62 19 4 36 4 39 0 3 -4 21 -4 41 0 20 5 42 6 48 4 7 -3 30 -6 52 -7
l39 -2 1 -315 c1 -173 2 -318 3 -322 1 -5 28 -8 61 -8 50 0 60 3 61 18 1 9 2
152 4 317 1 165 3 305 4 311 1 8 14 9 41 4 22 -4 43 -4 45 0 3 4 21 4 40 0 19
-4 37 -4 40 0 3 4 20 5 37 1 59 -13 73 -3 72 54 -1 28 -2 53 -3 57 0 5 -19 7
-41 5 -22 -2 -40 0 -40 5 0 4 -6 5 -14 2 -24 -9 -106 -11 -106 -2 0 4 -7 5
-15 1 -24 -9 -395 -9 -398 0 -1 5 -5 5 -9 2z"/>
<path d="M4558 3084 c-4 -3 -25 -7 -47 -8 -23 -1 -42 -4 -44 -7 -14 -20 -104
-125 -109 -127 -5 -2 -8 -10 -8 -18 0 -8 -3 -14 -7 -14 -5 0 -30 -28 -58 -63
-27 -34 -55 -66 -61 -72 -8 -8 -74 -87 -169 -202 -31 -37 -37 -44 -41 -40 -3
2 -5 126 -6 275 l-1 270 -63 -1 -64 -1 -1 -30 c-1 -17 -1 -40 0 -51 3 -34 3
-59 -1 -96 -2 -20 -1 -45 3 -55 3 -11 3 -29 -2 -41 -5 -15 -5 -23 2 -23 6 0 6
-6 1 -17 -5 -10 -6 -27 -2 -38 4 -11 4 -29 1 -40 -8 -22 -6 -84 3 -92 2 -3 1
-16 -4 -29 -6 -16 -6 -24 1 -24 6 0 6 -6 1 -17 -5 -10 -6 -27 -2 -38 4 -11 4
-29 1 -40 -4 -11 -5 -33 -4 -50 2 -16 3 -42 4 -57 0 -27 2 -28 53 -28 50 0 55
2 87 41 19 22 45 53 59 69 14 15 32 36 40 47 23 29 264 317 270 323 3 3 19 22
37 42 l32 38 -1 -193 c-1 -107 2 -199 6 -205 4 -7 3 -12 -1 -12 -5 0 -8 -21
-7 -47 1 -27 2 -60 3 -75 1 -27 2 -28 64 -28 l63 0 0 379 c-1 358 -5 418 -28
395z"/>
<path d="M5079 2881 c-1 -9 0 -20 1 -26 3 -14 2 -79 -2 -95 -4 -17 41 -30 64
-18 9 4 19 4 22 -1 5 -7 29 -8 61 -1 6 1 15 2 20 1 29 -5 376 -2 384 3 5 4 12
2 15 -2 6 -10 48 -8 65 2 5 4 12 2 15 -2 6 -10 48 -8 66 3 6 4 10 26 9 51 -2
24 0 46 3 49 3 3 3 16 0 30 l-4 24 -359 -1 c-325 0 -359 -2 -360 -17z"/>
</g>
</svg>
