<svg width="155" height="117" viewBox="0 0 155 117" fill="none" xmlns="http://www.w3.org/2000/svg">
    <path d="M168.26 68.9766L126.389 27.0703C121.994 22.6758 114.857 22.6758 110.498 27.0703L71.1934 66.2344C69.7168 67.7109 69.7168 70.0664 71.1934 71.543C72.6699 73.0195 75.0254 73.0195 76.502 71.543L115.771 32.3789C117.248 30.9023 119.604 30.9023 121.08 32.3789L162.986 74.2852C164.463 75.7617 164.463 78.1172 162.986 79.5938L129.342 113.238C127.865 114.715 127.865 117.07 129.342 118.547C130.08 119.285 131.029 119.637 132.014 119.637C132.963 119.637 133.947 119.285 134.686 118.547L168.33 84.9023C172.654 80.4727 172.654 73.3711 168.26 68.9766Z" fill="url(#paint0_linear_1971_10018)"/>
    <path d="M132.963 39.9023C131.486 38.4258 129.131 38.4258 127.654 39.9023L100.584 67.0781C99.1074 68.5547 99.1074 70.9102 100.584 72.3867C101.322 73.125 102.271 73.4766 103.256 73.4766C104.205 73.4766 105.189 73.125 105.893 72.3867L132.963 45.2109C134.404 43.7344 134.404 41.3789 132.963 39.9023Z" fill="url(#paint1_linear_1971_10018)"/>
    <path d="M116.227 67.5H11.25C9.17578 67.5 7.48828 65.8125 7.48828 63.7383C7.48828 61.6641 9.17578 59.9766 11.25 59.9766H86.2383C88.3125 59.9766 90 58.2891 90 56.2148C90 54.1406 88.3125 52.4531 86.2383 52.4531H11.25C5.0625 52.4531 0 57.5156 0 63.7031V153.703C0 159.891 5.0625 164.953 11.25 164.953H116.227C126.562 164.953 134.965 156.551 134.965 146.215V86.2734C135 75.9375 126.562 67.5 116.227 67.5ZM127.477 146.25C127.477 152.437 122.414 157.5 116.227 157.5H11.25C9.17578 157.5 7.48828 155.812 7.48828 153.738V74.3555C8.64844 74.7773 9.91406 74.9883 11.25 74.9883H116.227C122.414 74.9883 127.477 80.0508 127.477 86.2383V146.25Z" fill="url(#paint2_linear_1971_10018)"/>
    <path d="M15.6787 15.75C17.1201 14.3086 19.5107 14.3086 20.9873 15.75L164.284 159.047C165.726 160.488 165.726 162.879 164.284 164.355C162.843 165.797 160.452 165.797 158.976 164.355L15.6787 21.0586C14.2373 19.582 14.2373 17.1914 15.6787 15.75Z" fill="url(#paint3_linear_1971_10018)"/>
    <defs>
        <linearGradient id="paint0_linear_1971_10018" x1="70.0859" y1="71.7056" x2="471.376" y2="71.6924" gradientUnits="userSpaceOnUse">
            <stop stop-color="#45D6CE"/>
            <stop offset="1" stop-color="#3454D1"/>
        </linearGradient>
        <linearGradient id="paint1_linear_1971_10018" x1="99.4766" y1="56.1357" x2="236.171" y2="56.1315" gradientUnits="userSpaceOnUse">
            <stop stop-color="#45D6CE"/>
            <stop offset="1" stop-color="#3454D1"/>
        </linearGradient>
        <linearGradient id="paint2_linear_1971_10018" x1="-6.28686e-08" y1="108.703" x2="533.709" y2="108.683" gradientUnits="userSpaceOnUse">
            <stop stop-color="#45D6CE"/>
            <stop offset="1" stop-color="#3454D1"/>
        </linearGradient>
        <linearGradient id="paint3_linear_1971_10018" x1="14.5977" y1="90.0528" x2="610.797" y2="90.0343" gradientUnits="userSpaceOnUse">
            <stop stop-color="#45D6CE"/>
            <stop offset="1" stop-color="#3454D1"/>
        </linearGradient>
    </defs>
</svg>
