<svg width="118" height="106" viewBox="0 0 118 106" fill="none" xmlns="http://www.w3.org/2000/svg">
    <g clip-path="url(#clip0_1971_9985)">
        <path d="M9 155.988H51.0117C52.6641 155.988 54 154.652 54 153C54 151.348 52.6641 150.012 51.0117 150.012H9C7.34766 150.012 6.01172 148.676 6.01172 147.023V29.9883H24.0117C27.3164 29.9883 30.0234 27.3164 30.0234 23.9766V6.01172H99.0351C100.687 6.01172 102.023 7.34766 102.023 9V60.0117C102.023 61.6641 103.359 63 105.012 63C106.664 63 108 61.6641 108 60.0117V9C108 4.04297 103.957 0 99 0H9C4.04297 0 0 4.04297 0 9V146.988C0 151.98 4.04297 155.988 9 155.988ZM10.2305 24.0117L23.9766 10.2656V24.0117H10.2305ZM9 6.01172H19.7578L6.01172 19.7578V9C6.01172 7.34766 7.34766 6.01172 9 6.01172Z" fill="url(#paint0_linear_1971_9985)"/>
        <path d="M165.41 69.0117H150.012V66.0234C150.012 64.3711 148.676 63.0352 147.023 63.0352C145.371 63.0352 144.035 64.3711 144.035 66.0234V69.0117H96.0117V66.0234C96.0117 64.3711 94.6758 63.0352 93.0234 63.0352C91.3711 63.0352 90.0352 64.3711 90.0352 66.0234V69.0117H54C52.3477 69.0117 51.0117 70.3477 51.0117 72C51.0117 73.6523 52.3477 74.9883 54 74.9883H62.8945C60.9961 77.5898 59.9766 80.7539 59.9766 83.9883H53.9648C52.3125 83.9883 50.9766 85.3242 50.9766 86.9766C50.9766 88.6289 52.3125 89.9648 53.9648 89.9648H59.9766V107.965H50.9766C49.3242 107.965 47.9883 109.301 47.9883 110.953C47.9883 112.605 49.3242 113.941 50.9766 113.941H59.9766V122.941H50.9766C49.3242 122.941 47.9883 124.277 47.9883 125.93C47.9883 127.582 49.3242 128.918 50.9766 128.918H59.9766V164.918C59.8711 168.855 61.3828 172.652 64.125 175.5C66.8672 178.313 70.6289 179.93 74.5664 179.93H165.375C169.312 179.93 173.074 178.313 175.816 175.5C178.559 172.688 180.07 168.855 179.965 164.918V83.9883C180.07 80.0508 178.559 76.2539 175.816 73.4062C173.109 70.5938 169.348 69.0117 165.41 69.0117ZM74.9883 74.9883H90V77.9766C90 79.6289 91.3359 80.9648 92.9883 80.9648C94.6406 80.9648 95.9766 79.6289 95.9766 77.9766V74.9883H143.965V77.9766C143.965 79.6289 145.301 80.9648 146.953 80.9648C148.605 80.9648 149.941 79.6289 149.941 77.9766V74.9883H165.34C167.695 75.0234 169.91 75.9727 171.527 77.6602C173.145 79.3477 174.023 81.6328 173.918 83.9531V86.9414H65.9883V83.9531C65.918 81.5977 66.7617 79.3477 68.3789 77.6602C69.9961 75.9727 72.2461 74.9883 74.5664 74.9883H74.9883ZM165.41 173.988H74.6016C72.2461 173.953 70.0312 173.004 68.4141 171.316C66.7969 169.629 65.918 167.344 66.0234 165.023V92.9883H174.023V164.988C174.094 167.344 173.25 169.594 171.633 171.281C169.98 173.004 167.73 173.988 165.41 173.988Z" fill="url(#paint1_linear_1971_9985)"/>
        <path d="M37.8628 30.6559C37.23 30.1637 36.4566 29.9177 35.648 30.0231C34.8394 30.1286 34.1363 30.5153 33.6441 31.1481L23.73 43.5231L20.1089 39.902C18.9488 38.777 17.0503 38.777 15.8902 39.9372C14.73 41.0973 14.73 42.9606 15.855 44.1559L21.8667 50.1677C22.4292 50.7302 23.2027 51.0466 23.9761 51.0466H24.1519C24.9957 51.0114 25.8042 50.5895 26.3316 49.9216L38.3199 34.9098C38.8121 34.277 39.0582 33.5036 38.9527 32.695C38.8824 31.8864 38.4957 31.1481 37.8628 30.6559Z" fill="url(#paint2_linear_1971_9985)"/>
        <path d="M37.8628 69.6442C37.23 69.152 36.4566 68.9059 35.648 69.0114C34.8746 69.0817 34.1363 69.5036 33.6441 70.1364L23.73 82.5114L20.1089 78.8903C18.9488 77.7653 17.0503 77.7653 15.8902 78.9255C14.73 80.0856 14.73 81.9489 15.855 83.1442L21.8667 89.1559C22.4292 89.7184 23.2027 90.0348 23.9761 90.0348H24.1519C24.9957 89.9997 25.8042 89.5778 26.3316 88.9098L38.3199 73.8981C38.8121 73.2653 39.0582 72.4919 38.9527 71.6833C38.8824 70.8747 38.4957 70.1716 37.8628 69.6442Z" fill="url(#paint3_linear_1971_9985)"/>
        <path d="M92.9883 29.9883H54C52.3477 29.9883 51.0117 31.3242 51.0117 32.9766C51.0117 34.6289 52.3477 35.9648 54 35.9648H92.9883C94.6406 35.9648 95.9766 34.6289 95.9766 32.9766C96.0117 31.3594 94.6406 29.9883 92.9883 29.9883Z" fill="url(#paint4_linear_1971_9985)"/>
        <path d="M54 45C52.3477 45 51.0117 46.3359 51.0117 47.9883C51.0117 49.6406 52.3477 50.9766 54 50.9766H65.9883C67.6406 50.9766 68.9766 49.6406 68.9766 47.9883C68.9766 46.3359 67.6406 45 65.9883 45H54Z" fill="url(#paint5_linear_1971_9985)"/>
        <path d="M92.9883 45H81C79.3477 45 78.0117 46.3359 78.0117 47.9883C78.0117 49.6406 79.3477 50.9766 81 50.9766H92.9883C94.6406 50.9766 95.9766 49.6406 95.9766 47.9883C96.0117 46.3359 94.6406 45 92.9883 45Z" fill="url(#paint6_linear_1971_9985)"/>
        <path d="M83.918 111.375C86.7916 111.375 89.1211 109.045 89.1211 106.172C89.1211 103.298 86.7916 100.969 83.918 100.969C81.0444 100.969 78.7148 103.298 78.7148 106.172C78.7148 109.045 81.0444 111.375 83.918 111.375Z" fill="url(#paint7_linear_1971_9985)"/>
        <path d="M101.918 111.375C104.792 111.375 107.121 109.045 107.121 106.172C107.121 103.298 104.792 100.969 101.918 100.969C99.0444 100.969 96.7148 103.298 96.7148 106.172C96.7148 109.045 99.0444 111.375 101.918 111.375Z" fill="url(#paint8_linear_1971_9985)"/>
        <path d="M119.918 111.375C122.792 111.375 125.121 109.045 125.121 106.172C125.121 103.298 122.792 100.969 119.918 100.969C117.044 100.969 114.715 103.298 114.715 106.172C114.715 109.045 117.044 111.375 119.918 111.375Z" fill="url(#paint9_linear_1971_9985)"/>
    </g>
    <defs>
        <linearGradient id="paint0_linear_1971_9985" x1="-5.03079e-08" y1="77.9942" x2="427.078" y2="77.985" gradientUnits="userSpaceOnUse">
            <stop stop-color="#45D6CE"/>
            <stop offset="1" stop-color="#3454D1"/>
        </linearGradient>
        <linearGradient id="paint1_linear_1971_9985" x1="47.9883" y1="121.482" x2="569.9" y2="121.464" gradientUnits="userSpaceOnUse">
            <stop stop-color="#45D6CE"/>
            <stop offset="1" stop-color="#3454D1"/>
        </linearGradient>
        <linearGradient id="paint2_linear_1971_9985" x1="15.0156" y1="40.5228" x2="109.768" y2="40.5195" gradientUnits="userSpaceOnUse">
            <stop stop-color="#45D6CE"/>
            <stop offset="1" stop-color="#3454D1"/>
        </linearGradient>
        <linearGradient id="paint3_linear_1971_9985" x1="15.0156" y1="79.5111" x2="109.768" y2="79.5077" gradientUnits="userSpaceOnUse">
            <stop stop-color="#45D6CE"/>
            <stop offset="1" stop-color="#3454D1"/>
        </linearGradient>
        <linearGradient id="paint4_linear_1971_9985" x1="51.0117" y1="32.9766" x2="228.824" y2="32.9351" gradientUnits="userSpaceOnUse">
            <stop stop-color="#45D6CE"/>
            <stop offset="1" stop-color="#3454D1"/>
        </linearGradient>
        <linearGradient id="paint5_linear_1971_9985" x1="51.0117" y1="47.9883" x2="122.052" y2="47.9817" gradientUnits="userSpaceOnUse">
            <stop stop-color="#45D6CE"/>
            <stop offset="1" stop-color="#3454D1"/>
        </linearGradient>
        <linearGradient id="paint6_linear_1971_9985" x1="78.0117" y1="47.9883" x2="149.055" y2="47.9817" gradientUnits="userSpaceOnUse">
            <stop stop-color="#45D6CE"/>
            <stop offset="1" stop-color="#3454D1"/>
        </linearGradient>
        <linearGradient id="paint7_linear_1971_9985" x1="78.7148" y1="106.172" x2="119.866" y2="106.171" gradientUnits="userSpaceOnUse">
            <stop stop-color="#45D6CE"/>
            <stop offset="1" stop-color="#3454D1"/>
        </linearGradient>
        <linearGradient id="paint8_linear_1971_9985" x1="96.7148" y1="106.172" x2="137.866" y2="106.171" gradientUnits="userSpaceOnUse">
            <stop stop-color="#45D6CE"/>
            <stop offset="1" stop-color="#3454D1"/>
        </linearGradient>
        <linearGradient id="paint9_linear_1971_9985" x1="114.715" y1="106.172" x2="155.866" y2="106.171" gradientUnits="userSpaceOnUse">
            <stop stop-color="#45D6CE"/>
            <stop offset="1" stop-color="#3454D1"/>
        </linearGradient>
        <clipPath id="clip0_1971_9985">
            <rect width="180" height="180" fill="white"/>
        </clipPath>
    </defs>
</svg>
