<svg width="151" height="121" viewBox="0 0 151 121" fill="none" xmlns="http://www.w3.org/2000/svg">
    <path d="M124.021 90.3089H102.062C100.825 85.979 97.4227 82.5769 93.0928 81.3398V50.1027C93.0928 48.247 91.8557 47.0099 90 47.0099C88.1444 47.0099 86.9073 48.247 86.9073 50.1027V81.3398C81.6495 82.5769 77.6289 87.5254 77.6289 93.4016C77.6289 100.206 83.1959 105.773 90 105.773C95.8763 105.773 100.516 101.752 102.062 96.4944H124.021C125.876 96.4944 127.113 95.2573 127.113 93.4016C127.113 91.546 125.567 90.3089 124.021 90.3089ZM90 99.5872C86.598 99.5872 83.8145 96.8037 83.8145 93.4016C83.8145 89.9996 86.598 87.2161 90 87.2161C93.4021 87.2161 96.1856 89.9996 96.1856 93.4016C96.1856 96.8037 93.4021 99.5872 90 99.5872Z" fill="url(#paint0_linear_1971_10201)"/>
    <path d="M151.548 57.5253C145.362 47.0098 136.393 38.0408 125.878 31.8552C125.878 31.8552 125.877 31.8552 125.568 31.8552C115.053 25.9789 102.991 22.2676 90.3105 22.2676C77.6301 22.2676 64.9497 25.6696 54.4342 31.5459C54.4342 31.5459 54.4342 31.5459 54.1249 31.5459C43.6095 37.7315 34.6404 46.7006 28.4548 57.216C28.4548 57.216 28.4548 57.216 28.4548 57.5253C22.2692 68.3501 18.8672 80.4119 18.8672 93.4016C18.8672 106.391 22.2692 118.453 28.4548 128.659C28.4548 128.659 28.4548 128.659 28.4548 128.969C28.4548 128.969 28.4548 128.969 28.7641 129.278C34.9497 139.793 43.9187 148.762 54.4342 154.948H54.7435C65.2589 160.824 77.3208 164.226 90.0012 164.226C102.682 164.226 115.053 160.824 125.259 154.948H125.568C136.084 148.762 145.053 139.793 151.238 129.278C151.238 129.278 151.238 129.278 151.548 128.969C151.548 128.969 151.548 128.969 151.548 128.659C157.424 118.144 161.135 106.082 161.135 93.4016C161.135 80.7212 157.733 68.3501 151.548 57.5253C151.548 57.8346 151.548 57.8346 151.548 57.5253ZM124.95 147.835L123.403 145.36C122.475 143.814 120.62 143.505 119.073 144.123C117.527 145.051 117.218 146.907 117.836 148.453L119.383 150.927C111.341 154.948 102.372 157.731 92.7847 158.041V155.257C92.7847 153.402 91.5476 152.164 89.6919 152.164C87.8363 152.164 86.5991 153.402 86.5991 155.257V158.041C77.0115 157.731 68.0424 154.948 60.0012 150.927L61.5476 148.453C62.4754 146.907 61.8569 145.051 60.3105 144.123C58.7641 143.195 56.9084 143.814 55.9806 145.36L54.4342 147.835C46.7022 142.886 39.8981 136.082 34.9497 128.35L37.4239 126.804C38.9703 125.876 39.2796 124.02 38.661 122.474C37.7332 120.927 35.8775 120.618 34.3311 121.237L31.8569 122.783C27.8363 114.742 25.0528 105.773 24.7435 96.1851H27.527C29.3827 96.1851 30.6198 94.948 30.6198 93.0923C30.6198 91.2367 29.3827 89.9995 27.527 89.9995H24.4342C24.7435 80.4119 27.527 71.4428 31.5476 63.4016L34.0218 64.948C34.6404 65.2573 34.9497 65.2573 35.5682 65.2573C36.4961 65.2573 37.7332 64.6387 38.3517 63.7109C39.2796 62.1645 38.661 60.3088 37.1146 59.381L34.6404 57.8346C39.5888 50.1026 46.393 43.2985 54.1249 38.3501L55.6713 40.8243C56.2899 41.7521 57.2177 42.3707 58.4548 42.3707C59.0734 42.3707 59.3826 42.3707 60.0012 42.0614C61.5476 41.1336 61.8569 39.2779 61.2383 37.7315L59.6919 35.2573C67.7332 31.2366 76.7022 28.4531 86.2899 28.1439V30.9274C86.2899 32.783 87.527 34.0202 89.3826 34.0202C91.2383 34.0202 92.4754 32.783 92.4754 30.9274V28.4531C102.063 28.7624 111.032 31.5459 119.073 35.5665L117.527 38.0408C116.599 39.5872 117.218 41.4428 118.764 42.3707C119.383 42.6799 119.692 42.68 120.31 42.68C121.238 42.68 122.475 42.0614 123.094 41.1336L124.64 38.6593C132.372 43.6078 139.176 50.4119 144.125 58.1439L141.651 59.6903C140.104 60.6181 139.795 62.4738 140.414 64.0202C141.032 64.948 141.96 65.5666 143.197 65.5666C143.816 65.5666 144.125 65.5665 144.743 65.2573L147.218 63.7109C151.238 71.7521 154.022 80.7212 154.331 90.3088H151.548C149.692 90.3088 148.455 91.5459 148.455 93.4016C148.455 95.2573 149.692 96.4944 151.548 96.4944H154.64C154.331 106.082 151.548 115.051 147.527 123.092L145.053 121.546C143.506 120.618 141.651 121.237 140.723 122.783C139.795 124.329 140.414 126.185 141.96 127.113L144.434 128.659C139.486 136.082 132.682 142.886 124.95 147.835Z" fill="url(#paint1_linear_1971_10201)"/>
    <path d="M89.999 81.0304C89.999 81.0304 89.999 81.0304 86.9062 81.3397V50.1026C86.9062 48.2469 88.4526 47.0098 89.999 47.0098C91.8547 47.0098 93.0918 48.5562 93.0918 50.1026V81.3397C89.999 81.0304 89.999 81.0304 89.999 81.0304Z" fill="url(#paint2_linear_1971_10201)" stroke="url(#paint3_linear_1971_10201)" stroke-width="0.6" stroke-miterlimit="10"/>
    <path d="M117.836 44.2266C115.98 42.9895 115.362 40.5153 116.29 38.3503L118.145 34.9482C118.145 34.9482 119.692 35.8761 121.547 37.1132C123.403 38.3503 124.949 38.9689 124.949 38.9689L123.712 42.6802C122.784 44.5359 120.001 45.4637 117.836 44.2266Z" fill="url(#paint4_linear_1971_10201)"/>
    <path d="M89.9994 105.464C96.6609 105.464 102.061 100.063 102.061 93.4017C102.061 86.7401 96.6609 81.3398 89.9994 81.3398C83.3378 81.3398 77.9375 86.7401 77.9375 93.4017C77.9375 100.063 83.3378 105.464 89.9994 105.464Z" stroke="url(#paint5_linear_1971_10201)" stroke-width="0.9" stroke-miterlimit="10"/>
    <path d="M89.38 37.1138C87.215 37.1138 85.3594 35.2581 85.3594 33.0932V29.3818C85.3594 29.3818 87.215 29.3818 89.38 29.3818C91.5449 29.3818 93.4006 29.3818 93.4006 29.3818V33.0932C93.4006 35.2581 91.5449 37.1138 89.38 37.1138Z" fill="url(#paint6_linear_1971_10201)"/>
    <path d="M90.3087 160.516C127.374 160.516 157.422 130.468 157.422 93.4025C157.422 56.3368 127.374 26.2891 90.3087 26.2891C53.243 26.2891 23.1953 56.3368 23.1953 93.4025C23.1953 130.468 53.243 160.516 90.3087 160.516Z" stroke="url(#paint7_linear_1971_10201)" stroke-width="2.1" stroke-miterlimit="10"/>
    <defs>
        <linearGradient id="paint0_linear_1971_10201" x1="77.6289" y1="76.3913" x2="273.312" y2="76.3862" gradientUnits="userSpaceOnUse">
            <stop stop-color="#45D6CE"/>
            <stop offset="1" stop-color="#3454D1"/>
        </linearGradient>
        <linearGradient id="paint1_linear_1971_10201" x1="18.8672" y1="93.247" x2="581.456" y2="93.2295" gradientUnits="userSpaceOnUse">
            <stop stop-color="#45D6CE"/>
            <stop offset="1" stop-color="#3454D1"/>
        </linearGradient>
        <linearGradient id="paint2_linear_1971_10201" x1="86.9062" y1="64.1747" x2="111.367" y2="64.1746" gradientUnits="userSpaceOnUse">
            <stop stop-color="#45D6CE"/>
            <stop offset="1" stop-color="#3454D1"/>
        </linearGradient>
        <linearGradient id="paint3_linear_1971_10201" x1="86.9062" y1="64.1747" x2="111.367" y2="64.1746" gradientUnits="userSpaceOnUse">
            <stop stop-color="#45D6CE"/>
            <stop offset="1" stop-color="#3454D1"/>
        </linearGradient>
        <linearGradient id="paint4_linear_1971_10201" x1="115.863" y1="39.8691" x2="151.794" y2="39.868" gradientUnits="userSpaceOnUse">
            <stop stop-color="#45D6CE"/>
            <stop offset="1" stop-color="#3454D1"/>
        </linearGradient>
        <linearGradient id="paint5_linear_1971_10201" x1="77.9375" y1="93.4017" x2="173.333" y2="93.3987" gradientUnits="userSpaceOnUse">
            <stop stop-color="#45D6CE"/>
            <stop offset="1" stop-color="#3454D1"/>
        </linearGradient>
        <linearGradient id="paint6_linear_1971_10201" x1="85.3594" y1="33.2478" x2="117.158" y2="33.2468" gradientUnits="userSpaceOnUse">
            <stop stop-color="#45D6CE"/>
            <stop offset="1" stop-color="#3454D1"/>
        </linearGradient>
        <linearGradient id="paint7_linear_1971_10201" x1="23.1953" y1="93.4025" x2="553.985" y2="93.386" gradientUnits="userSpaceOnUse">
            <stop stop-color="#45D6CE"/>
            <stop offset="1" stop-color="#3454D1"/>
        </linearGradient>
    </defs>
</svg>
