<svg width="152" height="132" viewBox="0 0 152 132" fill="none" xmlns="http://www.w3.org/2000/svg">
    <g clip-path="url(#clip0_1971_10045)">
        <path d="M175.219 61.7695L118.23 4.78125C115.137 1.6875 111.059 0 106.664 0C102.305 0 98.1914 1.6875 95.0977 4.78125L4.74609 95.1328C1.6875 98.1914 0 102.305 0 106.664C0 111.023 1.6875 115.137 4.78125 118.23L11.8125 125.262L59.0625 172.512H52.5234C50.4492 172.512 48.7617 174.199 48.7617 176.273C48.7617 178.348 50.4492 180.035 52.5234 180.035H73.3359H127.512C129.586 180.035 131.273 178.348 131.273 176.273C131.273 174.199 129.586 172.512 127.512 172.512H87.6094L175.219 84.9024C181.582 78.5039 181.582 68.1328 175.219 61.7695ZM169.91 79.5938L79.5586 169.945C77.9062 171.598 75.6914 172.512 73.3359 172.512H73.3008C70.9453 172.512 68.7305 171.598 67.0781 169.945L19.7578 122.59L106.523 35.8242C108 34.3477 108 31.9922 106.523 30.5156C105.047 29.0391 102.691 29.0391 101.215 30.5156L14.4492 117.316L10.0547 112.922C8.40234 111.27 7.48828 109.055 7.48828 106.664C7.48828 104.273 8.40234 102.059 10.0547 100.406L100.406 10.0547C102.059 8.40234 104.273 7.48828 106.664 7.48828C109.02 7.48828 111.27 8.40234 112.922 10.0547L133.207 30.3398L46.4414 117.141C44.9648 118.617 44.9648 120.973 46.4414 122.449C47.1797 123.188 48.1289 123.539 49.0781 123.539C50.0273 123.539 51.0117 123.188 51.7148 122.449L138.516 35.6836L169.91 67.0781C173.355 70.5234 173.355 76.1133 169.91 79.5938Z" fill="url(#paint0_linear_1971_10045)"/>
        <path d="M92.3926 108.316C90.916 106.84 88.5605 106.84 87.084 108.316L57.5879 137.812C56.1113 139.289 56.1113 141.645 57.5879 143.121C58.3262 143.859 59.2754 144.211 60.2246 144.211C61.1738 144.211 62.1582 143.859 62.8613 143.121L92.3574 113.625C93.8691 112.148 93.8691 109.758 92.3926 108.316Z" fill="url(#paint1_linear_1971_10045)"/>
        <path d="M91.4395 125.191L89.8574 126.773C88.3809 128.25 88.3809 130.605 89.8574 132.082C90.5957 132.82 91.5449 133.172 92.4941 133.172C93.4434 133.172 94.4277 132.82 95.1309 132.082L96.7129 130.5C98.1895 129.023 98.1895 126.668 96.7129 125.191C95.2715 123.715 92.8809 123.715 91.4395 125.191Z" fill="url(#paint2_linear_1971_10045)"/>
        <path d="M143.121 57.5859C142.418 56.8828 141.469 56.4961 140.484 56.4961C139.5 56.4961 138.551 56.8828 137.848 57.5859L121.887 73.4766C121.184 74.1797 120.797 75.1289 120.797 76.1133C120.797 77.0977 121.184 78.0469 121.887 78.75L132.504 89.3672C133.242 90.1055 134.191 90.457 135.141 90.457C136.09 90.457 137.074 90.1055 137.777 89.3672L153.703 73.4414C155.18 71.9648 155.18 69.6094 153.703 68.1328L143.121 57.5859ZM135.141 81.457L129.832 76.1484L140.449 65.5312L145.758 70.8398L135.141 81.457Z" fill="url(#paint3_linear_1971_10045)"/>
    </g>
    <defs>
        <linearGradient id="paint0_linear_1971_10045" x1="-8.38425e-08" y1="90.0176" x2="711.762" y2="89.9956" gradientUnits="userSpaceOnUse">
            <stop stop-color="#45D6CE"/>
            <stop offset="1" stop-color="#3454D1"/>
        </linearGradient>
        <linearGradient id="paint1_linear_1971_10045" x1="56.4805" y1="125.71" x2="202.854" y2="125.705" gradientUnits="userSpaceOnUse">
            <stop stop-color="#45D6CE"/>
            <stop offset="1" stop-color="#3454D1"/>
        </linearGradient>
        <linearGradient id="paint2_linear_1971_10045" x1="88.75" y1="128.628" x2="124.618" y2="128.627" gradientUnits="userSpaceOnUse">
            <stop stop-color="#45D6CE"/>
            <stop offset="1" stop-color="#3454D1"/>
        </linearGradient>
        <linearGradient id="paint3_linear_1971_10045" x1="120.797" y1="73.4766" x2="255.301" y2="73.4724" gradientUnits="userSpaceOnUse">
            <stop stop-color="#45D6CE"/>
            <stop offset="1" stop-color="#3454D1"/>
        </linearGradient>
        <clipPath id="clip0_1971_10045">
            <rect width="180" height="180" fill="white"/>
        </clipPath>
    </defs>
</svg>
