<svg width="24" height="24" viewBox="0 0 24 24" fill="none" xmlns="http://www.w3.org/2000/svg">
<rect width="24" height="24" rx="12" fill="#5ECEC8"/>
<path d="M15.7524 5.72745C13.4654 5.29072 11.0906 5.29072 8.80366 5.72745C7.79215 5.94582 6.51675 7.16866 6.29686 8.12947C5.90105 10.0074 5.90105 11.929 6.29686 13.807C6.56073 14.7678 7.83612 15.9906 8.80366 16.209C8.84764 16.209 8.89162 16.2527 8.89162 16.2963V19.0477C8.89162 19.1788 9.06754 19.2661 9.1555 19.1351L10.4749 17.7812C10.4749 17.7812 11.5304 16.6894 11.7063 16.5147C11.7063 16.5147 11.7503 16.471 11.7942 16.471C13.1136 16.5147 14.477 16.3837 15.7963 16.1653C16.8079 15.947 18.0832 14.7241 18.3031 13.7633C18.699 11.8854 18.699 9.96374 18.3031 8.0858C18.0393 7.16866 16.7639 5.94582 15.7524 5.72745ZM15.7963 13.938C15.5764 14.3747 15.3126 14.7241 14.8728 14.9425C14.7408 14.9861 14.6089 15.0298 14.477 15.0735C14.301 15.0298 14.1691 14.9861 14.0372 14.9425C12.6298 14.3747 11.3105 13.5886 10.255 12.4531C9.68325 11.798 9.19948 11.0556 8.80366 10.2695C8.62775 9.8764 8.45183 9.52701 8.31989 9.13395C8.18796 8.78457 8.40785 8.43518 8.62775 8.17314C8.84764 7.91111 9.11152 7.73641 9.41937 7.60539C9.63927 7.47437 9.85916 7.56172 10.0351 7.73641C10.3869 8.17314 10.7387 8.60987 11.0026 9.09028C11.1785 9.39599 11.1346 9.74538 10.8267 9.96374C10.7387 10.0074 10.6948 10.0511 10.6068 10.1384C10.5628 10.1821 10.4749 10.2258 10.4309 10.3131C10.3429 10.4441 10.3429 10.5752 10.3869 10.7062C10.7387 11.7107 11.3984 12.4968 12.4099 12.9335C12.5859 13.0209 12.7178 13.0645 12.9377 13.0645C13.2455 13.0209 13.3775 12.6715 13.5974 12.4968C13.8173 12.3221 14.0812 12.3221 14.345 12.4531C14.5649 12.5841 14.7848 12.7588 15.0487 12.9335C15.2686 13.1082 15.4885 13.2392 15.7084 13.4139C15.8403 13.5013 15.8843 13.7196 15.7963 13.938ZM13.9492 10.6625C13.8613 10.6625 13.9052 10.6625 13.9492 10.6625C13.7733 10.6625 13.7293 10.5752 13.6853 10.4441C13.6853 10.3568 13.6853 10.2258 13.6414 10.1384C13.5974 9.96374 13.5094 9.78905 13.3335 9.65803C13.2455 9.61436 13.1576 9.57068 13.0696 9.52701C12.9377 9.48334 12.8497 9.48334 12.7178 9.48334C12.5859 9.43966 12.5419 9.35232 12.5419 9.2213C12.5419 9.13395 12.6738 9.04661 12.7618 9.04661C13.4654 9.09028 13.9932 9.48334 14.0812 10.3131C14.0812 10.3568 14.0812 10.4441 14.0812 10.4878C14.0812 10.5752 14.0372 10.6625 13.9492 10.6625ZM13.5094 8.74089C13.2895 8.65355 13.0696 8.5662 12.8058 8.52253C12.7178 8.52253 12.5859 8.47886 12.4979 8.47886C12.366 8.47886 12.278 8.39151 12.322 8.26049C12.322 8.12947 12.4099 8.04212 12.5419 8.0858C12.9817 8.12947 13.3775 8.21682 13.7733 8.39151C14.5649 8.78457 15.0047 9.43966 15.1366 10.3131C15.1366 10.3568 15.1366 10.4005 15.1366 10.4441C15.1366 10.5315 15.1366 10.6188 15.1366 10.7499C15.1366 10.7935 15.1366 10.8372 15.1366 10.8809C15.0927 11.0556 14.7848 11.0992 14.7408 10.8809C14.7408 10.8372 14.6969 10.7499 14.6969 10.7062C14.6969 10.3131 14.6089 9.92007 14.433 9.57068C14.1691 9.17763 13.8613 8.91559 13.5094 8.74089ZM15.8843 11.3613C15.7524 11.3613 15.6644 11.2303 15.6644 11.0992C15.6644 10.8372 15.6204 10.5752 15.5764 10.3131C15.4005 8.91559 14.2571 7.78009 12.8937 7.56172C12.6738 7.51805 12.4539 7.51805 12.278 7.47437C12.1461 7.47437 11.9702 7.47437 11.9262 7.29968C11.8822 7.16866 12.0141 7.03764 12.1461 7.03764C12.1901 7.03764 12.234 7.03764 12.234 7.03764C14.0372 7.08132 12.322 7.03764 12.234 7.03764C14.0812 7.08132 15.6204 8.30416 15.9283 10.1384C15.9722 10.4441 16.0162 10.7499 16.0162 11.0992C16.1042 11.2303 16.0162 11.3613 15.8843 11.3613Z" fill="white"/>
</svg>
