<svg width="137" height="99" viewBox="0 0 137 99" fill="none" xmlns="http://www.w3.org/2000/svg">
    <g clip-path="url(#clip0_1613_3905)">
        <path d="M46.9199 7.63999C47.6699 3.55999 51.9999 -0.19001 57.7399 0.75999C61.0999 1.31999 65.2899 5.88999 68.5599 5.13999C70.2099 4.75999 80.9599 -2.86001 90.3799 1.13999C97.7099 4.26999 99.8099 16.89 93.5599 32.37C91.4199 37.68 89.6399 39.49 87.8199 43.72C86.2199 47.44 85.0899 52.11 83.3399 55.72C82.8832 56.8677 82.1427 57.8807 81.1878 58.6642C80.2329 59.4478 79.0947 59.9762 77.8799 60.2C70.3699 61.83 61.9999 49.75 61.9999 49.75C61.9999 49.75 61.9999 57.36 58.0799 57.18C51.9999 56.9 45.1499 17.37 46.9199 7.63999Z" fill="#1FBBB3"/>
        <path d="M70.4699 15.0699C70.4699 15.0699 68.1599 16.3699 63.7099 13.8999C21.5599 -9.40011 40.1699 49.1499 41.8899 53.6299C44.9599 61.6299 48.6499 64.6299 50.7399 64.8699C54.0099 65.1899 57.9399 48.7599 57.9399 48.7599" fill="white"/>
        <path d="M50.82 65.5001H50.68C48.32 65.2601 44.44 62.0701 41.3 53.8601C41.17 53.5301 29.4 19.7601 40.3 10.2401C45 6.20008 53 7.25008 64 13.3601C68 15.5901 70.14 14.5301 70.16 14.5201L70.77 15.6101C70.66 15.6701 68.11 17.0501 63.4 14.4501C52.85 8.62008 45.4 7.52008 41.16 11.1801C31.94 19.1801 40.42 48.0601 42.47 53.4101C45.61 61.6201 49.19 64.0901 50.8 64.2501C52.41 64.4101 55.5 56.2501 57.33 48.6201L58.55 48.9101C57.62 52.8301 54.31 65.5001 50.82 65.5001Z" fill="#0D1C42"/>
        <path d="M52.7 49.7501C63.61 42.9101 64.45 66.3201 71.16 66.4101C75.08 66.4101 74.05 60.9901 78.69 52.1101C106.2 -0.489902 66.8799 4.58009 61.57 12.7701" fill="white"/>
        <path d="M71.17 67.0001C68.02 67.0001 66.17 62.8501 64.23 58.4901C62.39 54.3801 60.48 50.1401 57.56 49.2501C56.7794 49.0748 55.9697 49.0735 55.1886 49.2463C54.4074 49.4191 53.6738 49.7618 53.04 50.2501L52.38 49.1901C53.1666 48.6084 54.0714 48.2065 55.0305 48.013C55.9895 47.8195 56.9793 47.8389 57.93 48.0701C61.4 49.1201 63.42 53.6301 65.37 57.9901C67.15 61.9901 68.84 65.7201 71.18 65.7601C72.93 65.7601 73.41 64.5201 74.53 60.9301C75.4418 57.7747 76.654 54.7141 78.15 51.7901C93.47 22.4901 87.15 13.0701 81.95 10.0601C75.39 6.22008 64.62 9.19008 62.09 13.0601L61.09 12.3801C63.88 8.06008 75.36 4.78008 82.58 9.00008C88.12 12.2401 95.05 22.1801 79.25 52.3901C77.7841 55.2453 76.5986 58.236 75.71 61.3201C74.65 64.7601 73.94 67.0001 71.17 67.0001Z" fill="#0D1C42"/>
        <path d="M76.76 6.82005L80.54 10.6L77.74 16.05L82.5 13.54L83.34 17.17L86.55 13.68L89.91 15.07L87.81 10.46L89.21 5.98005L85.43 8.92005L82.99 4.30005L82.36 8.22005L76.76 6.82005Z" fill="white"/>
        <path d="M88.13 10.4401L89.78 5.16012L85.53 8.46012L82.83 3.37012L82.11 7.85012L75.79 6.27012L80.18 10.6601L77 16.7601L82.29 14.0001L83.17 17.8101L86.63 14.0001L90.5 15.6101L88.13 10.4401ZM86.47 13.3201L83.47 16.5501L82.67 13.0901L78.41 15.3401L80.87 10.5401L77.74 7.38012L82.6 8.59012L83.14 5.24012L85.34 9.38012L88.64 6.81012L87.49 10.4801L89.32 14.4801L86.47 13.3201Z" fill="#00B9AC"/>
        <path d="M1.52 78.4199C1.56 69.9999 7.9 65.8499 13.94 65.8499C16.4824 65.8293 18.9845 66.4851 21.19 67.7499V66.2299C18.8975 65.0203 16.342 64.3951 13.75 64.4099C7 64.4099 0 69.1199 0 78.4199C0 87.4199 7.14 91.8299 13.75 91.8299C16.4463 91.8828 19.1122 91.2533 21.5 89.9999V88.4499C19.2293 89.7822 16.6319 90.4541 14 90.3899C8 90.3899 1.52 86.5899 1.52 78.4199Z" fill="#0D1C42"/>
        <path d="M27.44 86.53V79.52H25.84V89.11H27.2L33.07 82.1V89.11H34.67V79.52H33.31L27.44 86.53Z" fill="#0D1C42"/>
        <path d="M55.97 79.52L50.1 86.53V79.52H48.5V89.11H49.86L55.73 82.1V89.11H57.33V79.52H55.97Z" fill="#0D1C42"/>
        <path d="M37.79 81H41.33V89.11H42.93V81H46.44V79.52H37.79V81Z" fill="#0D1C42"/>
        <path d="M72.25 82V83.52H63.75V82H72.26H72.25Z" fill="#0D1C42"/>
        <path d="M72.5 83.76H63.5V81.76H72.5V83.76ZM64 83.26H72V82.26H64V83.26Z" fill="#0D1C42"/>
        <path d="M108.84 78.9999C108.158 78.9988 107.483 79.1371 106.857 79.4063C106.231 79.6755 105.666 80.07 105.198 80.5654C104.73 81.0609 104.367 81.6469 104.134 82.2874C103.9 82.9279 103.8 83.6094 103.84 84.2899C103.84 87.5 106.03 89.58 109.41 89.58C110.62 89.6085 111.821 89.3587 112.92 88.8499L113 88.8V86.6699L112.63 86.8799C111.705 87.3676 110.676 87.6249 109.63 87.6299C108.85 87.6299 106.37 87.4499 105.96 85.2699H113.51V85.0699C113.696 84.3186 113.714 83.5354 113.561 82.7764C113.409 82.0175 113.091 81.3016 112.63 80.6799C112.169 80.1282 111.588 79.6898 110.931 79.3985C110.274 79.1072 109.558 78.9708 108.84 78.9999ZM105.94 83.3399C106.055 82.6432 106.427 82.0147 106.982 81.578C107.537 81.1414 108.236 80.928 108.94 80.98C109.338 80.9551 109.736 81.0174 110.108 81.1625C110.479 81.3076 110.814 81.5319 111.09 81.8199C111.453 82.2429 111.652 82.7825 111.65 83.3399H105.94Z" fill="#1DBBB1"/>
        <path d="M123.38 83.33H118.32V79.27H116.22V89.36H118.32V85.31H123.38V89.36H125.48V79.27H123.38V83.33Z" fill="#1DBBB1"/>
        <path d="M127.39 79.27V81.25H130.93V89.36H133.03V81.25H136.55V79.27H127.39Z" fill="#1DBBB1"/>
        <path d="M99.11 60.3701H80.71V60.7501C80.71 67.5801 80.01 80.2401 75.34 88.7501H72V98.5801H74.38V91.1001H100.38V98.5501H102.76V88.7201H99.11V60.3701ZM96.6 62.7401V88.7401H78.06C82.06 80.8801 82.94 69.3001 83.12 62.7401H96.6Z" fill="#1DBBB1"/>
        <path d="M70.4699 15.0699C70.4699 15.0699 68.1599 16.3699 63.7099 13.8999C21.5599 -9.40011 40.1699 49.1499 41.8899 53.6299" fill="white"/>
        <path d="M41.42 53.81C41.29 53.48 29.55 19.81 40.42 10.33C45 6.32998 52.95 7.37998 64 13.47C68.11 15.74 70.26 14.65 70.28 14.63L70.77 15.5C70.67 15.56 68.17 16.9 63.52 14.34C52.92 8.47998 45.39 7.33998 41.14 11.08C31.87 19.15 40.36 48.08 42.41 53.45L41.42 53.81Z" fill="#0D1C42"/>
    </g>
    <defs>
        <clipPath id="clip0_1613_3905">
            <rect width="137" height="99" fill="white"/>
        </clipPath>
    </defs>
</svg>
